{"glyphs":{":":{"x_min":0,"x_max":176,"ha":176,"o":"m 75 397 b 97 400 141 415 141 445 b 141 458 140 471 140 484 b 139 499 140 514 134 528 b 116 566 44 556 30 519 b 19 493 20 463 20 435 b 20 407 49 395 75 397 z m 144 142 b 143 144 141 146 139 148 b 138 148 137 149 136 150 b 126 156 112 157 101 157 b 90 156 79 152 70 147 b 66 145 63 143 60 140 b 58 138 56 136 54 134 b 33 112 37 76 37 48 b 37 20 66 8 91 11 b 113 13 155 28 155 57 b 155 84 159 119 144 142 z"},"$":{"x_min":0,"x_max":543,"ha":543,"o":"m 297 398 b 299 508 303 619 311 730 b 366 700 395 633 388 573 b 385 545 441 553 444 577 b 456 672 398 753 315 782 b 317 801 318 819 320 838 b 322 863 272 856 270 834 b 269 820 267 807 266 793 b 260 793 253 794 247 794 b 243 794 238 794 234 793 b 116 786 5 687 11 564 b 15 495 55 439 101 390 b 142 346 187 307 230 265 b 235 261 239 256 244 252 b 244 166 246 80 250 -7 b 225 5 203 23 188 40 b 165 65 149 95 138 127 b 130 151 109 206 129 228 b 138 237 133 249 122 253 b 110 258 94 252 86 243 b 66 223 67 197 70 171 b 75 139 84 107 98 77 b 123 24 163 -19 217 -43 b 228 -48 240 -52 252 -56 b 254 -94 257 -133 259 -171 b 261 -196 318 -183 316 -156 b 313 -125 311 -94 309 -63 b 336 -63 362 -59 387 -50 b 433 -34 471 -2 486 46 b 490 61 493 77 492 95 b 490 219 379 318 297 398 z m 246 448 b 220 476 196 504 176 535 b 144 583 132 633 153 688 b 171 734 217 752 262 746 b 254 647 249 548 246 448 z m 361 -7 b 344 -19 326 -23 306 -22 b 302 50 299 122 298 194 b 315 174 331 153 346 130 b 370 94 407 26 361 -7 z"},"?":{"x_min":0,"x_max":423,"ha":423,"o":"m 157 34 b 152 -1 149 -35 147 -70 b 145 -127 257 -110 260 -61 b 262 -26 265 8 270 43 b 278 98 164 84 157 34 z m 415 644 b 413 682 396 717 370 740 b 349 759 322 771 292 772 b 219 776 142 738 93 686 b 43 632 29 546 91 496 b 108 482 152 506 130 525 b 105 548 99 588 108 619 b 119 655 148 683 179 702 b 211 723 252 739 291 730 b 311 726 331 713 336 692 b 340 673 334 653 329 636 b 329 635 329 634 328 633 b 304 554 263 478 229 402 b 193 324 161 242 145 157 b 138 123 184 110 210 112 b 241 116 282 133 288 169 b 300 248 327 321 354 397 b 380 471 410 548 415 627 b 415 633 415 639 415 644 z"},"<":{"x_min":0,"x_max":417,"ha":417,"o":"m 372 284 b 324 296 275 306 226 318 b 208 322 190 326 171 330 b 200 348 229 364 259 380 b 299 402 343 420 378 449 b 405 471 386 496 356 495 b 296 492 236 465 182 439 b 156 427 131 412 106 398 b 78 381 41 365 24 336 b -13 271 73 248 118 238 b 183 224 247 208 312 195 b 340 189 378 205 392 228 b 406 250 399 277 372 284 z"},"'":{"x_min":0,"x_max":153,"ha":153,"o":"m 129 804 b 121 824 88 818 77 805 b 42 759 32 692 18 637 b 6 594 109 599 116 645 b 121 672 125 699 129 727 b 132 752 138 779 129 804 z"},"=":{"x_min":0,"x_max":583,"ha":583,"o":"m 60 356 b 96 348 133 354 168 356 b 204 358 239 359 275 359 b 346 358 417 348 488 345 b 514 344 546 352 559 378 b 571 404 547 418 526 423 b 451 438 370 437 294 436 b 257 436 220 434 183 431 b 144 428 102 426 67 410 b 45 401 26 363 60 356 z m 532 279 b 451 285 370 285 290 279 b 250 276 211 271 171 265 b 132 259 89 254 51 241 b 36 236 15 225 16 205 b 17 187 39 181 55 183 b 91 185 127 194 163 199 b 200 204 238 208 276 210 b 350 215 424 214 497 208 b 521 206 551 215 562 238 b 572 260 553 278 532 279 z"},"a":{"x_min":0,"x_max":461,"ha":461,"o":"m 434 209 b 435 279 440 349 444 419 b 447 483 337 470 311 424 b 282 438 252 447 219 447 b 183 447 151 435 123 417 b 111 409 99 399 87 388 b 23 324 3 218 10 130 b 18 44 60 -49 161 -47 b 199 -46 237 -32 261 -2 b 285 28 297 65 306 101 b 308 109 310 117 312 125 b 314 109 317 94 320 79 b 327 47 335 11 358 -15 b 378 -37 426 -24 431 5 b 438 37 436 71 435 104 b 435 139 434 174 434 209 z m 298 376 b 281 296 277 214 260 134 b 253 98 243 59 223 27 b 218 19 212 10 204 5 b 202 3 192 -1 195 -2 b 193 -1 190 0 188 1 b 177 7 166 22 161 30 b 142 61 137 104 136 139 b 135 182 139 227 151 269 b 161 302 175 339 197 365 b 205 375 217 389 229 393 b 250 399 277 386 295 377 b 296 377 297 377 298 376 b 298 376 298 376 298 376 z"},"L":{"x_min":0,"x_max":251,"ha":251,"o":"m 34 1022 b 14 846 17 665 26 488 b 31 380 40 272 58 165 b 71 83 91 -7 139 -77 b 180 -138 249 -174 322 -176 b 391 -179 461 -159 496 -94 b 510 -68 458 -69 447 -88 b 433 -112 410 -128 383 -134 b 381 -134 379 -135 377 -135 b 376 -135 375 -135 373 -135 b 373 -135 373 -135 372 -135 b 371 -135 371 -135 370 -135 b 369 -136 368 -136 367 -136 b 367 -136 367 -136 367 -136 b 346 -136 328 -127 310 -113 b 275 -86 257 -51 243 -9 b 218 66 206 146 196 224 b 189 272 185 320 181 368 b 180 391 179 413 177 439 b 176 464 175 489 174 514 b 171 610 170 706 173 802 b 175 880 177 957 183 1034 b 189 1110 41 1087 34 1022 z"},"3":{"x_min":0,"x_max":630,"ha":630,"o":"m 62 733 b 75 728 93 733 102 744 b 139 784 188 812 243 822 b 279 828 357 831 373 787 b 376 779 377 771 376 762 b 376 762 376 761 376 761 b 376 760 376 760 375 760 b 372 740 361 720 352 705 b 339 682 323 660 305 640 b 268 600 222 567 177 538 b 154 523 142 491 164 471 b 189 448 226 455 255 466 b 257 466 259 467 260 467 b 262 468 264 469 266 469 b 266 469 266 469 266 469 b 262 468 282 470 279 471 b 279 471 279 471 279 471 b 296 471 305 468 323 460 b 352 448 378 421 396 393 b 434 332 445 246 421 179 b 408 144 388 116 365 99 b 362 97 359 95 356 93 b 355 93 353 92 350 90 b 348 89 332 84 339 86 b 339 86 339 86 339 85 b 336 85 334 84 331 83 b 330 83 329 83 328 83 b 324 83 321 82 317 82 b 316 82 314 82 311 83 b 298 85 286 87 274 93 b 259 102 247 113 237 127 b 215 157 204 194 201 231 b 198 261 150 264 129 260 b 105 255 63 237 63 207 b 63 115 102 36 188 -3 b 277 -42 388 -21 463 37 b 603 143 622 373 495 498 b 460 532 415 557 366 568 b 387 591 407 615 423 642 b 451 689 463 743 443 789 b 437 801 430 813 419 824 b 417 825 416 827 414 829 b 367 872 291 872 232 860 b 164 847 102 811 55 760 b 46 750 50 737 62 733 z"},";":{"x_min":0,"x_max":194,"ha":194,"o":"m 83 395 b 94 391 110 391 122 394 b 146 402 166 417 165 443 b 163 468 161 493 158 517 b 157 528 148 534 138 537 b 127 540 114 540 106 539 b 98 537 87 534 78 529 b 66 522 57 512 57 500 b 57 472 59 444 61 415 b 61 406 75 397 83 395 z m 116 181 b 87 178 56 162 49 132 b 23 32 2 -69 -20 -170 b -26 -197 11 -207 31 -205 b 58 -203 85 -188 92 -161 b 120 -60 149 40 173 141 b 180 171 138 182 116 181 z"},"J":{"x_min":0,"x_max":738,"ha":738,"o":"m 42 -51 b 84 -118 152 -167 229 -186 b 269 -196 308 -204 350 -198 b 401 -191 449 -173 493 -145 b 660 -39 699 182 705 365 b 708 477 698 591 684 702 b 678 756 669 811 658 865 b 653 893 646 922 640 950 b 633 979 622 1005 611 1033 b 611 1033 611 1034 610 1035 b 659 1049 717 1059 748 1013 b 761 993 814 1014 798 1037 b 767 1084 706 1091 654 1083 b 594 1073 537 1052 481 1031 b 379 992 238 926 134 993 b 116 1005 71 982 95 964 b 188 895 321 932 420 968 b 452 979 484 992 516 1004 b 517 964 519 925 523 885 b 527 842 532 799 535 756 b 541 673 548 590 549 507 b 551 423 548 337 537 253 b 527 176 511 98 478 28 b 462 -6 449 -28 425 -56 b 406 -78 385 -96 362 -107 b 349 -114 345 -115 327 -119 b 313 -122 298 -127 284 -127 b 250 -128 215 -116 186 -100 b 57 -28 24 141 82 269 b 113 339 176 419 257 430 b 342 442 396 362 396 285 b 396 255 454 264 455 290 b 455 364 418 440 344 465 b 261 493 173 455 112 398 b -11 283 -50 94 42 -51 z"},"V":{"x_min":0,"x_max":833,"ha":833,"o":"m 622 11 b 609 -17 592 -55 564 -72 b 543 -84 522 -61 509 -46 b 486 -20 465 9 448 39 b 411 102 384 169 358 237 b 329 314 303 392 280 470 b 254 559 231 649 211 740 b 190 831 174 925 148 1015 b 128 1088 -19 1045 -10 973 b 2 887 24 802 43 718 b 63 634 85 549 109 466 b 134 383 163 301 196 221 b 227 147 263 70 312 5 b 356 -56 416 -127 493 -143 b 574 -159 643 -105 681 -39 b 682 -36 683 -34 684 -32 b 722 39 742 122 763 199 b 785 281 806 363 825 446 b 848 540 870 635 892 730 b 903 778 914 825 929 872 b 938 902 951 939 979 957 b 1007 976 976 998 953 992 b 881 973 864 907 850 842 b 833 762 813 682 796 602 b 761 439 725 276 666 120 b 652 83 638 47 622 11 z"},"\"":{"x_min":0,"x_max":258,"ha":258,"o":"m 67 807 b 41 786 37 755 31 725 b 25 694 20 664 18 633 b 15 586 104 601 110 640 b 115 669 119 698 123 727 b 125 751 137 788 118 806 b 104 819 81 818 67 807 z m 236 799 b 229 822 194 807 185 795 b 163 761 153 713 147 674 b 141 635 216 649 224 680 b 233 715 246 763 236 799 z"},"7":{"x_min":0,"x_max":520,"ha":520,"o":"m 57 786 b 69 776 90 781 101 790 b 130 810 168 824 205 825 b 244 825 281 809 298 767 b 314 726 315 679 316 635 b 316 590 312 543 308 498 b 303 448 296 399 288 349 b 268 346 248 342 229 338 b 218 336 204 325 207 313 b 211 300 228 301 238 303 b 252 306 267 308 281 311 b 276 279 270 246 264 214 b 246 119 224 23 218 -73 b 213 -146 350 -122 359 -62 b 373 22 384 106 397 189 b 404 238 412 287 418 337 b 428 338 438 340 447 342 b 458 344 473 355 470 368 b 466 381 448 381 437 378 b 433 378 428 377 423 376 b 425 399 427 422 429 445 b 434 526 437 613 418 692 b 406 742 388 792 353 827 b 353 827 353 828 352 828 b 349 831 346 834 343 836 b 343 837 343 837 342 837 b 339 840 336 842 333 845 b 332 845 332 845 332 845 b 328 848 325 850 321 853 b 321 853 320 853 320 853 b 316 855 312 857 308 859 b 308 859 308 859 308 859 b 304 861 299 863 294 865 b 216 894 124 867 61 817 b 50 809 45 795 57 786 z"},"S":{"x_min":0,"x_max":671,"ha":671,"o":"m 514 730 b 524 812 531 910 462 968 b 397 1023 301 1006 229 978 b 224 977 219 975 214 972 b 213 972 211 971 209 970 b 206 969 203 967 199 966 b 199 966 199 966 199 965 b 129 932 63 877 26 811 b -16 733 -18 633 19 553 b 97 383 277 304 420 198 b 455 172 490 144 519 111 b 547 79 578 46 589 4 b 610 -71 532 -137 466 -153 b 384 -172 293 -134 251 -61 b 200 30 234 141 295 217 b 316 243 266 250 252 232 b 198 166 164 85 175 -1 b 184 -79 234 -143 306 -175 b 374 -205 457 -204 524 -172 b 595 -138 638 -79 659 -4 b 683 83 637 172 577 233 b 514 299 440 350 367 405 b 297 457 232 511 185 586 b 144 652 118 732 141 809 b 156 855 187 895 226 923 b 261 947 303 962 346 962 b 397 963 436 936 455 889 b 476 837 470 780 464 726 b 461 701 511 708 514 730 z"},"}":{"x_min":0,"x_max":564,"ha":564,"o":"m 512 395 b 503 419 483 430 460 435 b 458 437 456 438 455 440 b 445 450 436 461 427 472 b 410 496 395 520 384 547 b 358 603 341 662 320 721 b 307 757 292 794 272 827 b 260 848 246 867 228 883 b 210 901 191 914 164 914 b 139 913 117 902 104 880 b 91 857 139 856 149 871 b 163 891 178 838 181 829 b 189 802 197 775 204 747 b 217 692 229 636 244 582 b 258 532 276 483 301 438 b 305 431 309 424 313 416 b 306 412 299 408 293 402 b 235 355 236 269 233 201 b 230 133 229 63 209 -3 b 201 -30 188 -58 170 -80 b 159 -94 148 -101 134 -101 b 128 -101 121 -99 114 -96 b 89 -87 25 -118 61 -145 b 81 -160 105 -166 130 -166 b 173 -165 218 -145 249 -119 b 301 -73 331 -7 346 60 b 361 126 364 193 370 260 b 371 276 373 292 375 308 b 377 320 381 331 383 343 b 395 336 409 332 423 330 b 446 328 471 334 490 348 b 503 358 519 377 512 395 z"},"Z":{"x_min":0,"x_max":665,"ha":665,"o":"m -6 922 b 7 917 23 923 32 932 b 130 1041 275 1107 422 1101 b 490 1099 574 1075 585 996 b 589 967 586 937 578 907 b 578 907 578 906 578 906 b 578 906 578 906 578 905 b 565 855 541 807 519 764 b 484 693 441 626 396 562 b 368 556 334 547 312 571 b 297 587 249 566 266 548 b 294 519 330 517 366 521 b 330 471 292 423 254 374 b 204 309 152 245 108 176 b 68 113 18 26 42 -52 b 72 -147 185 -165 270 -165 b 373 -165 482 -138 577 -98 b 601 -88 628 -59 614 -31 b 599 -2 560 -3 532 -9 b 490 -18 448 -32 406 -42 b 371 -50 334 -56 299 -57 b 282 -57 263 -55 246 -51 b 249 -52 231 -47 229 -46 b 229 -46 225 -45 224 -44 b 221 -42 214 -39 214 -39 b 211 -36 208 -34 206 -32 b 194 -22 189 -7 188 11 b 188 18 189 26 190 34 b 197 70 216 104 234 136 b 252 169 274 200 296 231 b 342 296 390 359 436 424 b 464 463 491 504 516 545 b 521 545 526 546 530 546 b 563 549 597 549 625 531 b 644 519 690 545 665 561 b 627 585 583 587 539 583 b 569 636 596 690 618 747 b 619 750 620 752 621 755 b 623 760 624 765 626 771 b 628 777 630 783 632 789 b 633 791 634 793 635 796 b 637 804 640 812 642 820 b 642 821 643 821 643 822 b 645 831 648 841 650 850 b 669 928 666 1007 613 1071 b 569 1124 495 1139 429 1140 b 263 1143 99 1071 -12 947 b -21 938 -17 926 -6 922 z"},"x":{"x_min":0,"x_max":395,"ha":395,"o":"m 442 138 b 430 140 417 134 410 123 b 387 84 355 25 305 18 b 292 16 282 20 272 26 b 249 44 237 82 228 105 b 211 151 198 199 188 247 b 224 307 263 363 303 421 b 324 452 270 458 253 438 b 225 403 198 366 174 327 b 169 360 165 394 163 427 b 160 459 107 462 86 458 b 61 454 14 434 15 401 b 17 329 30 256 53 187 b 58 172 64 158 70 143 b 64 132 59 121 54 110 b 36 72 16 33 6 -8 b -1 -34 50 -23 58 -8 b 74 20 86 51 100 81 b 115 54 134 29 158 8 b 191 -22 230 -33 271 -29 b 271 -29 272 -29 272 -29 b 275 -29 278 -29 281 -28 b 282 -28 283 -28 284 -28 b 286 -27 289 -27 291 -26 b 292 -26 294 -26 295 -26 b 297 -25 300 -24 302 -24 b 303 -23 305 -23 307 -23 b 309 -22 311 -21 314 -20 b 315 -20 316 -20 318 -19 b 322 -18 325 -16 329 -15 b 389 9 426 64 457 118 b 464 129 452 137 442 138 z"},")":{"x_min":0,"x_max":409,"ha":409,"o":"m 279 735 b 233 807 175 882 93 914 b 71 923 30 891 62 878 b 126 853 181 788 214 729 b 236 689 251 644 262 599 b 268 575 273 550 276 526 b 301 372 280 204 219 60 b 188 -12 149 -77 83 -118 b 62 -131 51 -162 71 -180 b 92 -200 132 -198 156 -185 b 311 -100 370 99 385 265 b 399 426 368 599 279 735 z"},"&":{"x_min":0,"x_max":662,"ha":662,"o":"m 558 289 b 450 340 309 271 255 173 b 241 148 293 148 304 168 b 342 236 425 281 503 263 b 551 251 569 204 552 160 b 538 120 502 90 467 70 b 402 33 316 14 242 31 b 155 50 153 141 192 207 b 214 245 247 280 282 307 b 301 322 317 332 339 342 b 346 346 355 349 363 351 b 379 354 394 357 408 361 b 431 367 463 387 460 414 b 458 441 426 453 402 449 b 361 446 323 444 282 449 b 250 453 207 459 181 482 b 125 530 162 615 206 657 b 250 700 322 729 384 730 b 422 730 459 711 471 673 b 482 636 474 596 466 559 b 461 532 517 540 523 564 b 540 635 548 719 478 764 b 459 776 439 784 418 788 b 360 801 295 788 241 769 b 162 741 93 692 48 621 b 1 545 2 438 88 391 b 120 373 156 361 194 353 b 155 321 121 283 92 240 b 60 191 38 129 53 70 b 68 13 117 -25 173 -38 b 284 -65 421 -31 510 39 b 550 70 589 113 605 161 b 622 210 607 266 558 289 z"},"_":{"x_min":0,"x_max":420,"ha":420,"o":"m 366 41 b 300 43 234 42 167 35 b 141 33 116 30 90 26 b 63 22 31 18 11 0 b -1 -9 -9 -19 -5 -32 b -5 -36 -4 -40 0 -43 b 0 -44 1 -45 1 -45 b 10 -59 32 -62 47 -61 b 139 -51 231 -43 324 -45 b 353 -46 389 -38 403 -9 b 415 17 392 40 366 41 z"},"v":{"x_min":0,"x_max":537,"ha":537,"o":"m 623 292 b 582 278 534 276 490 286 b 502 318 512 351 520 384 b 536 446 553 531 518 589 b 483 647 403 633 360 595 b 312 552 287 485 293 421 b 300 341 356 287 426 259 b 417 239 408 218 399 197 b 377 150 353 96 317 57 b 316 57 315 56 315 55 b 314 55 314 55 314 55 b 313 54 313 53 312 53 b 312 53 312 52 311 52 b 311 52 310 51 310 51 b 310 50 309 50 309 50 b 308 49 308 49 307 48 b 307 48 307 48 307 48 b 306 47 305 47 305 46 b 304 46 304 46 304 46 b 303 45 303 45 302 44 b 302 44 302 44 302 44 b 295 39 289 36 282 37 b 281 37 280 37 280 37 b 280 37 279 37 279 37 b 277 37 275 38 273 39 b 254 49 239 73 229 92 b 174 197 159 318 145 434 b 142 468 86 469 63 462 b 32 453 1 432 5 397 b 20 265 41 103 147 10 b 201 -37 287 -36 340 12 b 388 55 420 121 447 180 b 456 202 465 224 474 246 b 530 234 590 239 639 260 b 666 272 648 301 623 292 z m 461 359 b 455 340 449 321 443 303 b 404 322 372 352 357 395 b 339 448 350 508 383 553 b 395 569 411 587 432 588 b 461 588 473 558 478 534 b 491 476 477 415 461 359 z"},"O":{"x_min":0,"x_max":776,"ha":776,"o":"m 538 1071 b 435 1142 298 1127 195 1063 b 103 1007 39 911 12 807 b -15 698 2 565 81 481 b 79 411 81 341 90 271 b 105 151 139 7 237 -74 b 349 -166 517 -117 607 -18 b 650 29 678 88 700 147 b 724 215 742 285 753 356 b 793 600 762 921 538 1071 z m 56 751 b 66 846 110 940 182 1003 b 261 1073 381 1106 477 1051 b 480 1049 483 1048 486 1046 b 505 1034 521 1020 536 1005 b 588 949 617 872 635 798 b 636 794 636 790 637 786 b 663 671 661 551 645 435 b 628 318 601 196 545 90 b 533 68 520 47 503 28 b 496 21 488 12 482 7 b 478 3 473 0 468 -4 b 458 -11 468 -5 458 -10 b 453 -13 447 -15 442 -18 b 440 -18 434 -20 432 -21 b 430 -21 422 -23 421 -23 b 417 -24 413 -24 408 -24 b 408 -24 396 -24 393 -23 b 381 -19 375 -17 365 -11 b 322 16 296 64 279 111 b 256 173 243 240 236 306 b 233 338 231 371 231 403 b 324 388 426 417 507 464 b 537 482 509 509 484 494 b 408 450 315 423 231 445 b 232 534 240 624 247 712 b 253 787 103 765 97 700 b 92 656 88 613 85 569 b 59 625 51 691 56 751 z"},"(":{"x_min":0,"x_max":470,"ha":470,"o":"m 374 -60 b 343 -60 322 -55 296 -41 b 268 -25 245 -4 226 22 b 181 81 165 157 158 229 b 142 385 164 553 223 698 b 238 736 256 772 280 805 b 300 832 332 878 368 879 b 392 880 413 914 380 917 b 377 918 373 918 370 918 b 348 919 327 915 307 908 b 306 907 306 907 305 907 b 304 907 304 907 303 906 b 259 889 221 855 190 817 b 180 804 171 792 162 779 b 112 702 80 612 56 524 b 30 431 18 335 20 238 b 22 145 36 52 87 -28 b 142 -114 241 -167 343 -160 b 372 -158 410 -141 418 -111 b 425 -83 402 -61 374 -60 z"},"C":{"x_min":0,"x_max":703,"ha":703,"o":"m 184 699 b 197 766 214 822 250 884 b 254 892 259 899 263 906 b 265 909 267 912 269 915 b 270 916 272 920 274 922 b 286 938 300 953 314 968 b 339 992 373 1016 413 1016 b 460 1017 499 977 521 939 b 548 891 557 835 565 781 b 569 757 620 770 617 795 b 604 890 582 1001 490 1052 b 396 1104 275 1069 198 1002 b 70 890 22 719 12 555 b 4 429 13 301 40 178 b 69 44 143 -91 277 -142 b 325 -160 381 -167 431 -156 b 485 -144 536 -111 574 -72 b 655 12 698 134 714 248 b 718 273 665 266 662 243 b 652 173 621 66 568 -10 b 527 -70 472 -111 403 -102 b 386 -99 368 -93 349 -84 b 246 -32 210 97 189 203 b 181 242 176 282 172 322 b 171 335 170 347 169 360 b 168 367 168 373 167 380 b 167 382 167 384 167 386 b 167 387 166 396 166 397 b 165 429 164 461 164 494 b 165 562 171 631 184 699 z"},"W":{"x_min":0,"x_max":1177,"ha":1177,"o":"m 63 152 b 90 49 144 -63 241 -118 b 295 -149 361 -152 416 -120 b 462 -94 496 -46 518 1 b 550 68 571 139 586 212 b 587 211 587 209 587 208 b 604 150 627 95 658 43 b 710 -43 805 -133 910 -108 b 911 -108 911 -108 912 -108 b 913 -108 914 -107 915 -107 b 922 -105 928 -103 934 -101 b 937 -99 941 -98 945 -96 b 1054 -44 1078 100 1092 207 b 1108 339 1108 474 1129 606 b 1141 679 1158 752 1180 823 b 1198 879 1216 959 1268 993 b 1277 999 1279 1011 1270 1018 b 1260 1026 1244 1021 1235 1015 b 1192 988 1171 941 1153 895 b 1133 841 1115 786 1101 731 b 1070 610 1058 488 1049 364 b 1045 303 1040 241 1031 180 b 1023 123 1013 63 986 12 b 980 1 972 -10 962 -20 b 962 -20 962 -20 962 -20 b 961 -21 961 -21 961 -21 b 948 -33 933 -42 917 -45 b 906 -46 894 -45 882 -39 b 841 -18 815 28 796 67 b 771 121 756 179 743 237 b 729 299 725 364 707 424 b 698 457 654 462 626 457 b 600 453 549 431 551 397 b 551 381 553 365 555 349 b 543 255 522 162 490 72 b 473 26 453 -35 411 -64 b 405 -68 400 -71 395 -73 b 363 -87 334 -73 308 -45 b 245 22 221 118 204 206 b 184 316 176 429 174 541 b 172 675 179 809 181 942 b 181 1018 37 995 31 930 b 19 798 14 666 18 533 b 22 406 31 276 63 152 z"},"A":{"x_min":0,"x_max":779,"ha":779,"o":"m 745 461 b 738 554 729 648 715 741 b 702 829 686 918 648 999 b 632 1033 609 1064 573 1079 b 531 1096 482 1085 444 1064 b 368 1021 324 940 289 863 b 215 699 171 519 136 342 b 96 341 54 346 29 377 b 16 394 -31 376 -16 356 b 13 317 62 307 107 304 b 114 304 122 304 129 304 b 111 211 98 118 89 24 b 84 -26 80 -78 85 -129 b 87 -151 92 -172 114 -181 b 131 -188 154 -184 166 -169 b 174 -157 171 -150 163 -146 b 165 -140 167 -107 167 -101 b 168 -80 170 -58 172 -37 b 175 5 180 48 185 90 b 195 163 207 235 220 307 b 245 309 270 312 295 315 b 401 329 510 347 614 323 b 617 165 619 6 632 -153 b 633 -167 652 -178 663 -182 b 680 -188 703 -188 720 -183 b 753 -173 785 -150 781 -113 b 764 78 759 270 745 461 z m 355 364 b 313 359 271 352 228 348 b 259 503 297 658 357 804 b 384 871 415 945 468 995 b 487 1013 507 1029 529 1008 b 531 1007 533 1005 534 1004 b 536 1001 539 999 541 996 b 541 995 542 995 542 994 b 542 994 542 993 543 993 b 559 971 567 942 573 916 b 593 839 598 758 603 679 b 608 594 610 509 612 424 b 613 406 613 388 613 370 b 528 384 440 376 355 364 z"},"f":{"x_min":0,"x_max":248,"ha":248,"o":"m 313 607 b 303 631 284 644 263 649 b 242 654 218 652 196 646 b 178 640 162 631 149 621 b 91 572 69 493 61 420 b 53 420 45 421 37 421 b 25 422 7 417 1 405 b -4 393 6 383 18 382 b 31 381 44 381 57 382 b 52 312 50 243 48 173 b 48 133 48 93 48 53 b 49 11 46 -36 59 -76 b 78 -136 194 -106 201 -51 b 206 -18 200 17 197 51 b 195 81 193 112 192 143 b 189 206 189 269 189 333 b 189 354 189 375 190 396 b 200 397 211 398 221 398 b 252 398 264 437 226 437 b 214 437 203 436 191 435 b 192 460 195 485 199 510 b 202 534 206 560 216 583 b 217 587 220 594 223 599 b 226 604 230 609 234 610 b 241 613 248 609 254 603 b 258 598 262 593 264 589 b 273 571 321 587 313 607 z"},"Q":{"x_min":0,"x_max":683,"ha":683,"o":"m 63 569 b 61 506 63 443 71 380 b 84 273 116 145 204 74 b 229 54 257 42 286 36 b 264 27 243 17 221 6 b 209 0 196 -7 185 -14 b 168 -25 153 -37 142 -53 b 142 -53 142 -54 141 -54 b 140 -56 138 -59 136 -62 b 127 -77 132 -87 144 -93 b 146 -95 148 -96 150 -97 b 164 -104 179 -103 193 -99 b 198 -98 202 -97 205 -95 b 252 -68 304 -47 356 -29 b 411 -9 461 -2 518 -2 b 544 -3 580 17 587 43 b 594 70 572 86 547 89 b 530 91 513 92 496 91 b 512 103 526 116 539 130 b 577 173 601 225 620 279 b 640 338 655 399 665 460 b 698 673 666 952 469 1080 b 375 1140 254 1124 163 1066 b 85 1015 30 931 9 841 b -13 750 1 641 63 569 z m 56 802 b 65 882 102 960 162 1014 b 232 1075 336 1102 420 1052 b 437 1041 452 1029 465 1015 b 465 1014 466 1014 466 1013 b 466 1013 467 1012 467 1012 b 510 964 533 898 547 835 b 549 829 550 823 551 817 b 571 720 568 618 554 520 b 539 420 515 318 468 228 b 458 209 448 193 435 177 b 422 162 406 147 395 142 b 391 140 386 138 382 136 b 383 136 384 136 385 137 b 384 136 384 136 383 136 b 382 136 381 135 379 135 b 376 134 372 133 369 132 b 367 132 363 131 362 131 b 360 131 358 131 357 131 b 356 131 356 132 355 132 b 354 132 345 133 344 133 b 339 135 331 139 325 143 b 289 166 267 207 253 247 b 234 301 223 358 217 415 b 215 440 213 466 213 491 b 292 482 376 507 444 547 b 474 564 446 591 421 577 b 358 540 283 517 213 533 b 214 610 221 687 227 764 b 233 840 83 817 77 752 b 74 724 71 696 69 668 b 54 711 51 759 56 802 z"},"w":{"x_min":0,"x_max":750,"ha":750,"o":"m 815 292 b 777 283 736 283 698 294 b 701 303 703 313 705 323 b 721 394 741 474 728 547 b 723 575 710 600 680 607 b 651 615 620 605 595 589 b 546 560 514 503 513 446 b 512 379 551 316 607 280 b 618 273 629 267 641 262 b 638 251 635 239 632 228 b 616 168 596 86 539 51 b 540 51 540 51 540 51 b 539 51 535 49 532 48 b 532 48 532 48 532 48 b 511 60 500 81 492 103 b 470 164 466 227 461 290 b 459 320 410 323 391 319 b 369 315 328 298 326 271 b 324 269 324 267 323 265 b 316 205 308 144 280 89 b 271 73 249 33 227 31 b 222 31 218 33 213 36 b 201 44 192 60 187 70 b 162 119 156 178 151 232 b 145 296 147 360 151 424 b 156 493 21 472 15 413 b 7 332 11 245 31 166 b 46 102 78 18 142 -11 b 209 -40 276 5 313 60 b 327 80 337 103 345 126 b 353 101 362 76 376 52 b 412 -12 484 -41 553 -8 b 593 11 610 45 629 82 b 650 123 664 167 677 210 b 681 223 684 236 687 248 b 733 239 781 242 825 256 b 857 267 849 300 815 292 z m 532 47 b 531 47 531 47 531 47 b 531 47 531 47 531 47 b 531 47 531 47 532 47 b 532 47 532 47 532 47 b 532 47 532 47 532 47 z m 533 48 b 533 48 533 48 533 48 b 533 48 533 48 533 48 b 533 48 533 48 533 48 z m 680 485 b 677 427 667 369 653 312 b 616 333 587 368 575 415 b 564 461 576 512 609 546 b 621 559 645 580 663 567 b 684 552 681 506 680 485 z"},"-":{"x_min":0,"x_max":294,"ha":294,"o":"m 278 355 b 271 382 236 381 215 377 b 168 367 120 362 73 360 b 50 358 18 343 15 318 b 12 292 43 284 63 285 b 121 287 178 294 234 306 b 255 310 285 331 278 355 z"},"E":{"x_min":0,"x_max":740,"ha":740,"o":"m 9 267 b 14 154 31 41 87 -58 b 136 -143 217 -212 319 -218 b 336 -219 353 -218 370 -216 b 454 -205 534 -158 593 -97 b 593 -96 594 -95 595 -95 b 596 -94 597 -92 598 -91 b 600 -90 601 -88 602 -87 b 604 -85 605 -83 607 -81 b 608 -81 608 -80 609 -79 b 611 -77 614 -74 616 -71 b 693 22 728 140 754 256 b 759 282 705 275 700 252 b 679 160 652 67 600 -12 b 559 -76 496 -141 417 -149 b 241 -168 191 63 175 193 b 163 285 166 380 175 472 b 180 526 188 580 199 632 b 236 623 272 617 310 617 b 359 617 406 629 451 649 b 540 691 594 781 591 880 b 589 914 581 947 567 976 b 544 1021 503 1055 446 1061 b 335 1075 235 998 171 914 b 32 734 -2 488 9 267 z m 464 702 b 428 676 387 669 344 669 b 300 668 256 674 212 683 b 218 703 224 723 231 742 b 257 818 290 901 350 956 b 370 975 398 998 427 1000 b 454 1002 477 988 494 969 b 494 969 494 969 494 969 b 495 968 495 967 496 967 b 497 966 497 965 498 964 b 498 964 498 964 498 964 b 501 960 503 957 506 954 b 507 952 508 950 509 948 b 556 872 537 756 464 702 z"},"s":{"x_min":0,"x_max":304,"ha":304,"o":"m 298 96 b 296 109 290 122 280 136 b 243 190 178 221 148 281 b 136 305 119 348 138 373 b 142 378 146 382 151 385 b 161 391 172 392 183 390 b 183 390 183 390 183 390 b 183 390 183 390 183 390 b 196 387 207 379 215 367 b 227 348 284 365 273 388 b 262 410 247 424 229 433 b 229 433 229 433 228 434 b 227 434 226 434 225 435 b 224 435 223 436 222 436 b 222 436 222 436 222 437 b 199 446 171 447 145 443 b 118 439 92 429 71 416 b -5 369 -17 264 38 196 b 85 139 158 117 212 68 b 214 66 217 64 219 62 b 225 57 231 52 235 46 b 238 40 239 33 233 25 b 223 10 200 7 183 9 b 142 16 116 51 111 90 b 109 113 59 100 62 77 b 71 3 144 -41 214 -25 b 246 -18 276 0 290 30 b 300 54 303 75 298 96 z"},">":{"x_min":0,"x_max":454,"ha":454,"o":"m 440 371 b 440 371 440 371 440 372 b 439 374 439 376 439 378 b 432 407 400 424 375 434 b 343 447 309 456 276 464 b 210 481 142 492 74 497 b 54 498 27 491 18 471 b 10 452 26 438 44 436 b 97 430 149 421 200 408 b 226 401 251 393 275 385 b 287 381 299 377 311 372 b 321 368 328 360 337 356 b 337 355 338 355 338 354 b 336 353 335 352 336 352 b 326 348 315 342 305 338 b 280 327 255 316 230 305 b 176 283 121 264 68 241 b 45 230 17 200 37 174 b 57 146 100 154 127 164 b 191 189 254 219 315 251 b 357 273 446 311 440 371 z m 339 353 b 339 354 339 354 339 354 b 339 354 339 354 339 354 b 339 354 339 354 339 353 z"},"l":{"x_min":0,"x_max":182,"ha":182,"o":"m 177 -35 b 176 -32 175 -30 174 -28 b 171 -21 169 -14 168 -7 b 167 2 166 10 165 19 b 165 21 165 24 164 27 b 164 27 164 27 164 27 b 164 27 164 28 164 29 b 164 36 164 44 163 52 b 161 96 158 132 156 181 b 149 317 152 453 156 588 b 159 688 167 787 173 887 b 178 958 38 937 31 875 b 11 700 9 523 18 347 b 18 327 20 308 21 288 b 24 216 28 141 41 70 b 44 52 48 35 52 18 b 56 3 61 -12 67 -27 b 76 -47 87 -66 108 -74 b 116 -77 124 -79 131 -79 b 145 -79 158 -76 172 -71 b 174 -70 177 -69 179 -69 b 202 -59 195 -39 177 -35 z m 179 -40 b 179 -40 178 -39 178 -38 b 178 -38 179 -38 179 -39 b 179 -39 179 -39 179 -40 z"},"8":{"x_min":0,"x_max":561,"ha":561,"o":"m 230 327 b 232 325 234 324 236 322 b 220 297 207 270 197 243 b 171 167 158 70 192 -5 b 225 -78 307 -103 382 -84 b 401 -79 419 -71 436 -60 b 487 -28 526 27 536 85 b 551 167 503 248 448 307 b 472 380 495 454 511 530 b 528 614 543 714 509 796 b 478 869 412 920 331 916 b 245 911 159 857 109 790 b 53 715 32 616 67 528 b 100 446 163 384 230 327 z m 276 -23 b 240 8 233 61 232 106 b 231 153 239 200 256 244 b 262 259 268 274 276 289 b 326 248 377 206 412 151 b 434 118 452 79 447 39 b 444 17 433 -3 418 -18 b 408 -28 396 -35 383 -40 b 347 -54 305 -48 276 -23 z m 462 595 b 453 511 431 429 405 349 b 391 362 377 374 364 386 b 363 389 361 392 356 395 b 355 396 353 397 351 397 b 313 432 276 467 246 509 b 199 576 181 665 210 743 b 231 803 298 883 371 855 b 472 816 473 684 462 595 z"},"\\":{"x_min":0,"x_max":494,"ha":494,"o":"m 442 10 b 399 153 348 294 294 433 b 266 503 238 573 208 642 b 193 675 179 708 163 741 b 161 745 159 749 157 753 b 151 765 145 778 139 790 b 130 809 116 827 108 846 b 97 869 43 857 51 831 b 56 813 57 794 62 776 b 66 758 71 740 75 722 b 85 686 96 650 106 614 b 126 543 147 471 169 400 b 211 257 254 114 300 -28 b 311 -61 356 -65 384 -56 b 410 -49 452 -24 442 10 z"},"e":{"x_min":0,"x_max":394,"ha":394,"o":"m 344 148 b 339 105 322 63 291 31 b 279 18 262 5 244 1 b 232 -1 220 2 209 12 b 184 34 173 73 166 104 b 158 141 153 180 155 218 b 156 234 158 250 161 266 b 199 267 238 273 271 294 b 304 316 327 354 319 396 b 312 435 274 456 237 460 b 188 466 138 446 102 415 b 20 346 1 236 12 135 b 17 89 30 36 61 0 b 94 -39 145 -61 197 -57 b 208 -56 218 -54 228 -52 b 282 -39 328 -3 358 44 b 379 76 391 114 394 152 b 396 177 347 170 344 148 z m 178 328 b 184 344 191 360 199 375 b 204 385 210 404 221 410 b 228 414 236 413 244 409 b 249 407 253 404 256 401 b 269 388 271 367 265 350 b 251 311 207 303 170 303 b 172 312 175 320 178 328 z"},"b":{"x_min":0,"x_max":572,"ha":572,"o":"m 602 280 b 582 257 560 236 537 218 b 536 232 535 246 534 259 b 526 327 499 396 435 430 b 385 457 319 465 274 423 b 226 377 208 296 193 233 b 188 216 185 198 181 181 b 180 190 180 200 179 209 b 174 285 172 361 171 436 b 168 588 175 738 182 889 b 185 967 36 943 28 877 b 12 722 11 565 15 410 b 17 331 20 253 28 174 b 35 98 46 22 82 -47 b 95 -70 139 -66 158 -58 b 184 -49 203 -31 201 -3 b 201 4 200 11 200 18 b 221 123 233 231 272 332 b 284 364 319 451 364 403 b 397 368 404 315 408 270 b 412 228 410 184 404 141 b 361 124 317 108 279 81 b 236 49 194 -11 210 -68 b 211 -70 212 -72 212 -74 b 237 -138 331 -132 384 -109 b 491 -61 532 59 537 172 b 576 198 612 229 643 265 b 663 289 616 296 602 280 z m 342 -31 b 333 -41 321 -53 308 -58 b 297 -62 288 -60 282 -54 b 274 -46 271 -33 271 -20 b 271 33 318 66 361 85 b 373 91 385 96 396 101 b 387 55 372 5 342 -31 z"},"%":{"x_min":0,"x_max":838,"ha":838,"o":"m 640 757 b 606 761 572 746 554 717 b 476 595 406 466 339 337 b 273 208 211 77 160 -58 b 158 -62 157 -67 157 -71 b 157 -82 162 -90 171 -94 b 177 -97 184 -100 191 -100 b 216 -103 247 -92 259 -69 b 326 62 392 193 462 323 b 532 452 606 577 680 703 b 697 732 665 754 640 757 z m 315 451 b 318 455 320 460 322 465 b 350 527 344 623 291 671 b 256 703 212 704 172 688 b 162 704 141 710 120 708 b 97 707 49 688 50 658 b 54 575 51 476 118 416 b 179 360 275 383 315 451 z m 179 652 b 185 655 192 658 200 659 b 227 663 249 644 262 622 b 290 576 284 515 252 473 b 248 469 244 463 240 459 b 236 456 232 455 228 456 b 212 461 201 493 196 508 b 180 554 179 604 179 652 z m 780 232 b 765 283 725 325 664 331 b 635 334 607 329 580 319 b 547 338 475 318 471 276 b 465 207 467 127 518 74 b 567 22 647 6 710 40 b 753 64 778 106 786 151 b 790 178 788 207 780 232 z m 696 124 b 695 121 694 118 692 116 b 686 105 675 93 663 94 b 644 95 626 114 616 128 b 589 168 590 219 594 265 b 619 276 650 275 671 256 b 684 244 694 225 699 206 b 707 178 707 148 696 124 z"},"m":{"x_min":0,"x_max":722,"ha":722,"o":"m 686 290 b 677 325 665 360 647 391 b 646 391 646 392 646 393 b 643 397 640 402 637 406 b 618 435 594 463 556 462 b 479 460 436 371 412 304 b 403 335 385 376 360 404 b 336 431 305 446 267 431 b 213 410 180 349 159 293 b 159 304 160 315 160 327 b 163 365 170 406 161 444 b 156 467 125 473 106 472 b 82 470 53 458 42 435 b 24 397 22 356 20 315 b 18 277 17 237 19 199 b 20 160 22 122 25 83 b 28 44 30 2 45 -35 b 63 -79 138 -55 148 -17 b 156 12 157 42 157 72 b 164 121 177 169 189 215 b 204 275 225 344 272 387 b 286 400 292 396 296 378 b 299 364 300 349 301 334 b 303 300 303 266 304 232 b 304 196 304 159 304 122 b 304 84 302 46 309 9 b 314 -21 357 -24 379 -20 b 404 -15 441 2 444 32 b 444 34 444 36 444 38 b 444 39 444 39 444 39 b 446 55 451 72 453 89 b 456 106 458 124 460 142 b 466 177 472 212 480 246 b 485 268 517 438 555 414 b 564 408 569 397 573 384 b 579 363 580 338 581 323 b 584 288 583 254 582 219 b 579 144 572 69 573 -6 b 574 -75 707 -55 710 5 b 715 99 709 199 686 290 z"},"#":{"x_min":0,"x_max":725,"ha":725,"o":"m 622 895 b 596 895 555 883 545 855 b 507 741 477 625 453 507 b 430 506 408 504 386 501 b 394 533 402 565 411 597 b 432 671 455 744 472 819 b 479 850 439 864 417 864 b 389 864 345 851 334 821 b 294 711 265 596 238 481 b 196 474 154 465 113 456 b 102 453 86 442 89 429 b 93 415 112 415 123 417 b 158 425 193 432 228 439 b 223 416 218 393 213 370 b 212 369 212 367 211 365 b 165 354 119 341 73 326 b 63 322 47 313 51 300 b 54 287 73 286 83 289 b 123 299 162 309 201 319 b 188 261 176 203 166 145 b 159 109 154 73 150 37 b 147 2 139 -43 153 -77 b 163 -101 203 -95 217 -77 b 242 -44 254 -2 266 37 b 277 73 287 110 296 146 b 313 214 330 281 347 349 b 372 353 398 358 424 361 b 412 294 402 226 395 158 b 392 118 388 79 387 39 b 386 36 386 32 386 28 b 386 24 386 21 386 17 b 386 14 386 11 386 8 b 386 1 386 -7 386 -15 b 386 -36 394 -58 392 -78 b 389 -106 439 -94 445 -73 b 451 -51 467 -30 474 -7 b 475 -3 477 2 478 7 b 482 20 487 34 490 48 b 500 87 508 127 516 168 b 529 237 541 306 555 376 b 566 377 577 377 588 378 b 622 380 634 423 594 421 b 584 420 574 420 564 419 b 567 436 571 453 575 470 b 592 471 610 471 627 471 b 661 470 673 513 633 513 b 616 513 600 513 584 513 b 611 627 643 740 674 853 b 682 881 642 894 622 895 z m 432 406 b 408 403 383 399 358 395 b 363 416 369 438 374 459 b 398 461 421 463 444 465 b 440 445 436 425 432 406 z"},",":{"x_min":0,"x_max":222,"ha":222,"o":"m 167 170 b 137 174 106 160 90 135 b 71 104 54 71 36 39 b 19 9 -2 -23 -14 -56 b -35 -112 57 -104 80 -77 b 105 -47 126 -11 145 23 b 165 56 185 88 202 122 b 215 148 190 168 167 170 z"},"n":{"x_min":0,"x_max":469,"ha":469,"o":"m 461 26 b 451 112 450 200 431 284 b 418 343 380 460 300 450 b 225 440 191 341 172 279 b 170 273 168 266 166 259 b 169 309 173 359 173 410 b 173 484 43 457 31 398 b 17 329 17 255 19 184 b 20 115 17 34 49 -29 b 58 -47 93 -46 108 -42 b 130 -36 147 -22 153 -1 b 157 13 159 28 160 43 b 177 107 194 171 212 235 b 220 267 229 299 242 330 b 249 345 276 413 299 408 b 307 406 304 400 305 392 b 306 384 307 376 308 368 b 310 351 311 333 311 316 b 313 281 312 246 311 211 b 309 141 305 70 309 -1 b 313 -84 470 -52 461 26 z"},"h":{"x_min":0,"x_max":539,"ha":539,"o":"m 503 299 b 495 338 476 389 444 421 b 421 446 392 461 354 453 b 274 437 233 340 208 271 b 197 244 188 217 181 189 b 180 196 179 203 179 209 b 174 285 172 361 171 436 b 168 588 175 738 182 889 b 185 967 36 943 28 877 b 12 722 11 565 15 410 b 17 331 20 253 28 174 b 35 98 46 22 82 -47 b 95 -70 139 -66 158 -58 b 184 -49 203 -31 201 -3 b 201 -1 201 1 201 3 b 202 5 202 7 202 9 b 211 83 226 157 250 228 b 261 261 274 295 290 326 b 303 353 322 396 351 410 b 361 415 368 414 373 410 b 380 405 384 394 386 381 b 388 367 388 351 388 343 b 388 306 386 269 385 232 b 383 150 376 68 379 -13 b 380 -49 414 -64 447 -60 b 474 -57 531 -37 530 -1 b 526 99 524 201 503 299 z"},"z":{"x_min":0,"x_max":396,"ha":396,"o":"m 395 31 b 392 61 356 73 330 69 b 288 64 247 57 205 54 b 189 52 172 51 156 50 b 163 60 170 72 177 80 b 189 95 201 109 214 123 b 240 154 266 185 290 217 b 313 249 336 281 355 315 b 360 325 365 334 369 344 b 379 366 383 390 374 414 b 349 481 255 475 197 465 b 157 458 117 446 80 427 b 48 411 13 391 3 355 b -4 331 47 336 54 354 b 64 382 108 398 133 408 b 165 420 200 428 234 430 b 252 431 271 430 288 425 b 307 419 319 411 309 390 b 293 359 264 331 241 306 b 188 248 134 193 79 137 b 34 92 -45 -6 53 -42 b 96 -59 146 -52 191 -48 b 240 -44 288 -37 336 -29 b 362 -24 398 1 395 31 z"},"B":{"x_min":0,"x_max":825,"ha":825,"o":"m 178 1012 b 175 1087 34 1065 29 1000 b 27 971 26 941 25 911 b 19 785 23 659 27 533 b 29 492 30 450 32 409 b 36 310 42 212 50 114 b 54 64 59 15 65 -34 b 69 -58 72 -82 79 -106 b 85 -130 96 -151 107 -173 b 120 -198 171 -189 191 -167 b 197 -162 200 -156 200 -148 b 200 -147 200 -146 201 -145 b 217 -165 240 -181 271 -189 b 339 -208 416 -195 482 -172 b 617 -126 742 -28 787 112 b 832 250 801 403 691 501 b 643 543 584 571 522 582 b 565 624 603 671 636 719 b 677 778 712 842 721 914 b 723 925 723 937 723 949 b 723 979 716 1009 700 1034 b 691 1047 680 1058 665 1067 b 600 1103 519 1073 465 1031 b 409 987 368 927 335 863 b 263 724 229 567 198 414 b 194 392 190 370 186 348 b 185 375 184 403 183 430 b 180 527 179 624 179 721 b 178 818 181 915 178 1012 z m 255 306 b 263 347 270 389 279 430 b 292 431 306 435 318 440 b 347 453 375 469 402 486 b 403 486 404 486 403 486 b 408 487 412 487 417 488 b 420 488 424 488 427 488 b 426 488 444 487 446 487 b 470 484 482 481 508 471 b 528 463 550 449 570 433 b 653 369 681 257 663 157 b 656 116 640 75 618 40 b 618 40 617 39 617 39 b 616 37 614 35 613 33 b 612 32 612 32 612 31 b 608 26 605 21 601 16 b 572 -21 535 -53 497 -73 b 453 -97 407 -114 361 -116 b 354 -116 345 -116 336 -114 b 313 -109 294 -95 286 -71 b 283 -61 282 -51 282 -41 b 283 82 370 181 460 254 b 468 260 475 269 477 278 b 478 285 476 292 469 298 b 464 304 456 307 448 308 b 448 308 448 308 448 308 b 448 308 448 308 448 308 b 434 310 419 308 409 302 b 333 260 267 195 224 117 b 233 181 244 243 255 306 z m 354 719 b 376 783 403 845 439 903 b 467 948 508 1002 561 1020 b 586 1029 605 1022 617 1008 b 633 991 639 962 637 936 b 632 876 593 820 558 774 b 497 693 425 624 343 572 b 331 569 319 564 308 559 b 321 613 336 666 354 719 z"},"K":{"x_min":0,"x_max":665,"ha":665,"o":"m 595 1034 b 606 1060 557 1059 548 1039 b 470 861 346 706 186 597 b 179 740 174 883 165 1026 b 165 1028 164 1030 163 1033 b 159 1043 150 1049 138 1053 b 136 1054 135 1055 133 1055 b 118 1060 102 1060 87 1057 b 60 1053 14 1033 14 999 b 14 806 28 612 43 420 b 49 326 56 232 66 138 b 71 92 76 45 83 -1 b 91 -50 95 -102 121 -145 b 122 -147 124 -149 126 -151 b 127 -151 127 -151 127 -152 b 128 -152 128 -152 128 -152 b 150 -168 201 -154 209 -129 b 210 -127 211 -124 211 -121 b 212 -121 212 -121 212 -120 b 214 -114 215 -108 216 -102 b 224 -61 220 -20 219 22 b 218 69 214 116 211 164 b 206 258 199 352 193 446 b 191 479 190 511 188 544 b 219 547 250 548 279 535 b 305 524 331 504 351 484 b 401 437 435 376 457 311 b 481 240 495 165 501 90 b 507 14 501 -62 500 -139 b 499 -207 624 -185 632 -128 b 644 -43 642 45 632 130 b 623 214 604 297 567 374 b 532 445 484 510 413 549 b 405 553 397 557 388 561 b 343 580 294 588 244 587 b 398 701 523 856 595 1034 z"},"R":{"x_min":0,"x_max":719,"ha":719,"o":"m 50 1007 b 10 693 13 368 51 54 b 56 11 63 -32 70 -74 b 78 -117 85 -169 110 -206 b 131 -235 184 -212 193 -184 b 204 -147 198 -104 196 -67 b 194 -39 193 -11 191 17 b 194 75 198 132 203 189 b 242 171 281 152 320 133 b 422 83 524 32 628 -15 b 655 -27 695 -15 715 4 b 731 20 744 52 717 66 b 631 110 544 151 457 193 b 415 214 372 234 329 255 b 308 265 287 276 265 286 b 258 290 251 293 243 297 b 257 306 270 315 284 325 b 311 345 338 366 364 389 b 418 436 469 487 513 543 b 557 599 596 658 628 722 b 643 751 658 783 667 816 b 676 850 679 885 667 918 b 642 988 565 995 503 974 b 438 953 385 906 343 853 b 254 736 212 593 185 450 b 181 426 177 401 173 377 b 170 502 171 628 176 754 b 180 842 185 930 191 1018 b 196 1090 58 1068 50 1007 z m 317 708 b 350 782 395 859 462 908 b 491 929 532 951 569 942 b 612 931 620 878 607 842 b 606 840 605 837 604 835 b 590 797 564 762 542 729 b 520 696 495 664 470 634 b 420 571 363 514 302 462 b 280 443 257 425 233 408 b 236 426 240 444 243 463 b 260 546 282 629 317 708 z"},"T":{"x_min":0,"x_max":619,"ha":619,"o":"m 76 871 b 62 869 40 863 29 875 b 14 891 -35 872 -19 852 b 2 828 33 829 62 832 b 103 836 144 846 184 856 b 249 874 314 893 379 910 b 361 736 369 557 377 383 b 381 293 387 204 399 115 b 405 73 412 31 422 -10 b 432 -51 441 -107 472 -138 b 500 -167 560 -151 571 -112 b 577 -89 571 -64 569 -41 b 567 -20 564 1 561 23 b 556 66 552 110 548 154 b 541 238 538 321 535 405 b 531 582 539 761 528 938 b 528 940 528 942 527 944 b 576 954 625 963 675 971 b 718 977 761 982 804 984 b 841 986 880 987 911 963 b 931 948 981 976 955 996 b 897 1039 811 1027 745 1019 b 663 1011 582 995 502 978 b 469 994 416 982 392 953 b 347 942 302 930 257 917 b 218 905 179 893 139 884 b 118 879 97 874 76 871 z"},"P":{"x_min":0,"x_max":735,"ha":735,"o":"m 25 1041 b 8 843 14 642 34 443 b 44 346 56 248 73 152 b 90 54 107 -46 147 -137 b 162 -171 232 -159 235 -122 b 238 -92 238 -63 237 -34 b 254 136 260 306 275 475 b 291 650 310 840 395 997 b 413 1031 438 1067 476 1083 b 515 1099 554 1079 583 1053 b 586 1050 589 1046 593 1043 b 598 1037 602 1031 607 1025 b 608 1023 609 1022 610 1021 b 610 1020 610 1019 611 1019 b 636 978 648 927 654 879 b 655 866 657 853 657 840 b 663 755 655 668 635 585 b 619 517 593 431 542 386 b 542 386 534 380 534 380 b 532 378 525 374 525 374 b 523 373 521 373 520 372 b 519 371 519 371 519 371 b 518 371 518 371 518 371 b 519 372 524 374 515 370 b 515 370 512 369 510 369 b 506 368 502 368 498 367 b 497 367 496 367 496 367 b 491 368 486 368 482 369 b 481 369 474 371 469 373 b 463 377 456 382 451 387 b 438 399 430 416 426 434 b 406 514 455 586 502 646 b 528 679 476 691 453 679 b 370 636 318 545 312 453 b 309 410 315 365 339 330 b 366 290 413 269 460 266 b 697 251 777 524 775 712 b 774 808 758 903 711 987 b 670 1060 590 1140 500 1129 b 402 1117 348 1029 314 946 b 274 850 254 747 239 644 b 222 529 213 414 206 298 b 200 356 195 413 191 471 b 176 665 171 859 179 1054 b 183 1132 31 1108 25 1041 z"},"|":{"x_min":0,"x_max":193,"ha":193,"o":"m 154 422 b 152 496 149 570 145 645 b 141 719 139 795 121 868 b 113 898 59 880 54 856 b 38 782 37 707 35 631 b 33 556 32 482 31 407 b 30 258 26 109 30 -40 b 30 -74 62 -86 92 -84 b 118 -82 167 -62 167 -29 b 167 121 160 271 154 422 z"},"t":{"x_min":0,"x_max":182,"ha":182,"o":"m 190 566 b 178 567 167 567 155 568 b 155 575 156 581 156 588 b 159 688 166 787 173 887 b 177 958 38 937 31 875 b 19 772 14 668 13 563 b 4 562 -5 561 -14 560 b -24 558 -41 552 -42 539 b -43 527 -29 522 -18 523 b -8 524 2 525 13 526 b 13 466 14 407 17 347 b 18 327 19 308 20 288 b 24 216 28 141 41 70 b 44 53 47 35 52 18 b 56 3 60 -12 67 -27 b 75 -47 87 -66 108 -74 b 116 -77 123 -79 131 -79 b 145 -79 158 -76 172 -71 b 174 -70 176 -69 179 -69 b 202 -59 195 -39 177 -35 b 176 -32 174 -30 174 -28 b 171 -21 169 -14 168 -7 b 166 2 166 10 165 19 b 165 21 164 24 164 27 b 164 27 164 27 164 27 b 164 27 164 28 164 29 b 164 36 164 44 163 52 b 161 96 158 132 156 181 b 150 297 151 413 154 528 b 160 528 165 528 171 528 b 183 527 200 531 206 544 b 211 556 201 565 190 566 z m 178 -39 b 179 -39 179 -39 178 -40 b 178 -40 178 -39 178 -38 b 178 -38 178 -38 178 -39 z"},"M":{"x_min":0,"x_max":1152,"ha":1152,"o":"m 29 1000 b 27 971 26 941 25 911 b 19 785 23 659 27 533 b 29 492 30 450 32 409 b 36 310 42 212 50 114 b 54 64 59 15 65 -34 b 69 -58 72 -82 79 -106 b 85 -130 96 -151 107 -173 b 120 -198 171 -189 191 -167 b 197 -162 200 -156 200 -148 b 200 -144 201 -139 201 -134 b 201 -133 201 -132 201 -132 b 228 126 247 384 310 636 b 340 754 375 878 446 978 b 457 993 474 1026 496 1010 b 518 994 518 954 521 930 b 527 864 535 799 540 733 b 549 585 548 438 553 290 b 555 256 587 242 618 245 b 644 248 695 266 695 301 b 695 308 695 315 695 322 b 728 437 747 555 771 672 b 784 734 799 796 818 856 b 836 911 857 970 893 1017 b 900 1026 905 1036 916 1030 b 926 1024 930 1011 933 1001 b 942 972 945 941 948 911 b 954 850 955 787 957 726 b 960 595 957 465 953 335 b 950 188 945 38 963 -108 b 967 -142 1021 -146 1046 -141 b 1072 -137 1124 -115 1122 -80 b 1115 65 1111 210 1108 356 b 1105 499 1101 642 1079 784 b 1069 850 1054 914 1024 974 b 1002 1016 966 1078 911 1072 b 852 1065 819 992 798 945 b 772 884 753 819 738 754 b 718 674 704 593 688 512 b 688 516 688 520 687 525 b 683 597 678 671 665 742 b 653 814 637 886 610 954 b 589 1004 551 1058 489 1056 b 428 1054 391 988 364 941 b 331 883 308 820 288 757 b 246 624 218 487 198 349 b 194 326 191 303 188 280 b 186 330 184 380 183 430 b 180 527 179 624 179 721 b 178 818 181 915 178 1012 b 175 1087 34 1065 29 1000 z"},"g":{"x_min":0,"x_max":488,"ha":488,"o":"m 468 161 b 467 260 460 359 453 458 b 452 473 432 485 420 489 b 403 495 379 494 362 489 b 331 480 303 461 299 430 b 274 441 247 447 219 447 b 183 447 151 436 123 417 b 111 409 99 399 87 388 b 23 324 3 218 10 130 b 18 44 60 -49 161 -47 b 199 -46 237 -32 261 -2 b 285 28 297 65 306 101 b 311 117 314 134 317 150 b 322 65 324 -20 321 -106 b 320 -141 316 -180 302 -213 b 299 -219 296 -225 292 -231 b 285 -243 275 -255 263 -263 b 263 -263 263 -263 263 -263 b 263 -264 262 -264 261 -265 b 260 -265 260 -266 259 -266 b 259 -266 258 -266 258 -267 b 255 -268 252 -270 249 -271 b 248 -271 246 -272 244 -272 b 213 -279 175 -258 155 -235 b 132 -207 123 -172 128 -136 b 131 -112 81 -119 78 -140 b 68 -201 96 -265 151 -294 b 208 -324 285 -317 338 -283 b 406 -241 437 -167 452 -91 b 467 -8 469 77 468 161 z m 298 376 b 281 296 277 214 260 134 b 253 98 243 59 223 27 b 218 19 212 10 204 5 b 202 3 192 -1 195 -2 b 193 -1 190 0 188 1 b 177 7 166 22 161 30 b 142 61 137 104 136 139 b 135 182 139 227 151 269 b 161 302 175 339 197 365 b 205 375 217 389 229 393 b 250 399 277 386 295 377 b 296 377 297 377 298 376 b 298 376 298 376 298 376 z"},"j":{"x_min":0,"x_max":202,"ha":202,"o":"m 137 489 b 119 495 95 494 78 489 b 43 479 11 456 15 417 b 28 243 38 68 32 -106 b 31 -141 28 -180 13 -213 b 10 -219 7 -225 4 -231 b -4 -243 -14 -255 -25 -263 b -25 -263 -25 -263 -25 -263 b -26 -264 -27 -264 -28 -265 b -28 -265 -29 -266 -30 -266 b -30 -266 -30 -266 -30 -267 b -33 -268 -36 -270 -39 -271 b -41 -271 -43 -272 -44 -272 b -76 -279 -114 -258 -133 -235 b -156 -207 -166 -172 -161 -136 b -158 -112 -207 -119 -211 -140 b -221 -201 -193 -265 -138 -294 b -80 -324 -4 -317 50 -283 b 117 -241 149 -167 163 -91 b 179 -9 182 77 182 161 b 182 260 176 359 169 458 b 168 473 148 485 137 489 z m 237 786 b 209 821 155 793 129 770 b 112 755 98 738 85 719 b 78 709 72 698 66 688 b 62 694 59 700 55 704 b 43 718 28 731 10 738 b -21 753 -63 739 -68 702 b -74 664 -49 625 -26 598 b 1 565 34 541 73 524 b 83 520 101 527 111 536 b 111 537 112 537 112 538 b 145 575 175 615 201 657 b 221 688 266 750 237 786 z m 185 731 b 164 674 122 620 82 573 b 63 586 45 600 30 617 b 12 637 -11 665 -12 694 b -10 693 -8 691 -7 690 b 5 680 15 667 24 654 b 31 645 37 633 49 629 b 61 625 78 629 88 637 b 99 645 105 660 111 671 b 120 685 128 699 138 712 b 147 726 159 740 172 751 b 174 753 183 762 187 760 b 195 755 187 736 185 731 z"},"i":{"x_min":0,"x_max":177,"ha":177,"o":"m 160 419 b 163 489 30 467 22 408 b 12 336 14 259 21 187 b 24 150 29 115 36 79 b 43 47 51 11 74 -15 b 94 -37 142 -24 148 5 b 154 37 152 71 152 104 b 151 139 150 174 150 209 b 151 279 156 349 160 419 z m 238 786 b 211 821 156 793 131 770 b 114 755 99 738 86 719 b 79 709 74 698 68 688 b 64 694 60 700 57 704 b 44 718 29 731 12 738 b -20 753 -61 739 -67 702 b -73 664 -48 625 -25 598 b 2 565 36 541 75 524 b 84 520 103 527 112 536 b 113 537 113 537 114 538 b 146 575 176 615 203 657 b 223 688 267 750 238 786 z m 186 731 b 165 674 124 620 83 573 b 64 586 46 600 31 617 b 13 637 -9 665 -11 694 b -8 693 -6 691 -5 690 b 7 680 16 667 25 654 b 32 645 38 633 50 629 b 62 625 79 629 89 637 b 100 645 106 660 113 671 b 121 685 129 699 139 712 b 149 726 160 740 173 751 b 176 753 185 762 188 760 b 196 755 188 736 186 731 z"},"y":{"x_min":0,"x_max":565,"ha":565,"o":"m 532 458 b 531 473 511 485 500 489 b 482 495 459 494 441 489 b 407 479 377 457 378 420 b 360 344 342 267 323 190 b 314 152 304 115 288 79 b 284 69 274 49 262 36 b 253 26 243 20 234 25 b 212 37 204 79 197 100 b 187 133 181 169 177 203 b 168 282 166 362 162 441 b 160 476 127 492 94 488 b 65 485 13 466 12 429 b 11 350 14 270 27 192 b 38 126 56 55 105 6 b 136 -25 176 -36 215 -29 b 241 -25 267 -13 290 6 b 339 47 357 116 372 177 b 378 202 383 226 389 251 b 396 132 400 13 395 -106 b 394 -141 391 -180 376 -213 b 374 -219 370 -225 367 -231 b 359 -243 350 -255 338 -263 b 338 -263 338 -263 338 -263 b 337 -264 336 -264 336 -265 b 335 -265 334 -266 334 -266 b 333 -266 333 -266 333 -267 b 330 -268 327 -270 324 -271 b 322 -271 321 -272 319 -272 b 287 -279 250 -258 230 -235 b 207 -207 197 -172 202 -136 b 205 -112 156 -119 152 -140 b 142 -201 170 -265 226 -294 b 283 -324 359 -317 413 -283 b 480 -241 512 -167 526 -91 b 542 -9 545 77 545 161 b 545 260 540 359 532 458 z"},"@":{"x_min":0,"x_max":920,"ha":920,"o":"m 878 614 b 844 706 770 774 679 808 b 570 850 452 837 349 789 b 345 787 341 785 338 783 b 336 782 334 781 332 780 b 277 752 226 713 184 668 b 183 667 183 666 182 666 b 174 657 166 648 158 638 b 158 638 158 638 158 637 b 154 632 150 627 146 622 b 86 541 46 446 27 346 b 9 245 10 131 52 35 b 95 -65 182 -137 294 -145 b 419 -154 534 -96 636 -30 b 649 -22 655 -6 643 6 b 632 17 608 16 595 8 b 520 -33 444 -81 357 -88 b 275 -94 204 -56 158 11 b 110 82 97 173 100 257 b 103 344 124 430 162 509 b 164 513 166 517 169 521 b 170 524 171 527 173 529 b 174 531 174 532 175 534 b 177 537 178 539 180 542 b 181 544 182 545 182 547 b 184 549 186 552 187 555 b 188 556 189 558 190 559 b 191 561 192 563 193 565 b 195 567 196 569 198 571 b 198 572 199 574 200 575 b 202 578 204 581 206 584 b 206 584 206 584 207 585 b 262 664 340 732 432 756 b 461 764 491 767 522 765 b 594 761 664 729 711 675 b 765 612 780 530 777 450 b 774 371 754 280 694 223 b 693 222 689 219 685 216 b 682 218 679 221 677 223 b 672 229 667 235 663 242 b 641 284 645 337 646 383 b 646 408 629 420 608 422 b 589 474 525 501 470 495 b 467 494 464 494 461 493 b 425 488 391 473 361 451 b 323 424 291 386 268 345 b 231 276 203 170 242 97 b 264 54 310 34 357 39 b 410 45 453 77 488 115 b 508 138 526 162 543 187 b 562 150 594 123 645 118 b 760 105 850 215 881 314 b 911 409 913 521 878 614 z m 363 123 b 364 124 364 124 364 124 b 364 124 364 124 364 124 b 364 124 364 123 363 123 b 363 123 363 123 363 123 z m 368 121 b 367 121 365 122 364 123 b 367 125 370 126 368 121 z m 524 385 b 493 313 460 239 412 177 b 401 162 389 146 375 134 b 372 131 366 126 364 124 b 364 124 363 124 363 124 b 362 124 361 125 360 126 b 354 134 347 145 343 151 b 343 152 342 153 342 155 b 336 173 334 192 335 211 b 336 287 365 356 414 413 b 435 438 469 460 503 451 b 524 446 542 431 552 412 b 539 405 529 396 524 385 z"},".":{"x_min":0,"x_max":142,"ha":142,"o":"m 130 -12 b 127 -4 126 4 125 13 b 124 15 124 17 124 19 b 124 16 124 16 124 18 b 124 23 124 27 124 32 b 127 87 23 69 16 23 b 13 2 14 -20 19 -42 b 27 -67 63 -70 84 -64 b 105 -58 137 -39 130 -12 z"},"p":{"x_min":0,"x_max":537,"ha":537,"o":"m 496 364 b 481 392 453 420 422 435 b 405 443 387 447 369 447 b 316 445 278 407 253 363 b 196 263 177 144 162 31 b 160 85 159 139 160 193 b 161 267 171 341 172 416 b 173 448 139 460 111 458 b 79 455 47 438 38 405 b 17 324 18 237 18 154 b 19 70 24 -14 30 -97 b 35 -178 43 -258 54 -338 b 59 -376 64 -417 87 -450 b 88 -452 90 -454 92 -456 b 103 -467 122 -473 139 -471 b 155 -469 170 -461 175 -444 b 183 -417 177 -384 175 -356 b 195 -178 206 2 245 176 b 255 223 268 269 288 312 b 299 339 322 399 357 404 b 382 408 396 389 405 366 b 405 366 405 366 405 366 b 405 366 405 366 405 366 b 413 346 416 322 418 307 b 424 267 421 224 412 184 b 403 142 388 101 362 67 b 359 63 357 58 353 55 b 353 54 352 53 352 53 b 350 53 349 53 348 54 b 346 55 345 55 344 56 b 330 63 322 74 319 88 b 319 88 319 89 319 89 b 319 89 319 90 319 90 b 318 94 318 97 317 101 b 317 103 317 104 317 105 b 318 138 258 127 253 100 b 250 78 251 54 258 33 b 266 8 283 -13 310 -23 b 380 -47 444 -1 479 55 b 534 145 549 270 496 364 z"},"X":{"x_min":0,"x_max":673,"ha":673,"o":"m -7 972 b 12 890 42 810 73 732 b 105 651 140 571 179 494 b 188 476 197 459 206 441 b 171 366 139 289 109 211 b 91 164 73 118 52 72 b 46 58 -6 -54 -17 -50 b -37 -42 -74 -71 -45 -83 b -10 -97 23 -71 41 -43 b 66 -5 87 37 106 78 b 144 163 174 250 210 336 b 218 353 226 371 234 389 b 296 276 367 167 450 67 b 480 31 511 -3 544 -35 b 581 -72 620 -111 669 -130 b 675 -133 685 -134 695 -132 b 707 -130 719 -126 728 -120 b 741 -112 748 -101 743 -87 b 730 -49 699 -17 673 14 b 648 45 624 77 599 109 b 549 174 502 242 458 312 b 407 394 361 479 320 566 b 366 654 417 739 476 818 b 530 892 594 959 676 1002 b 710 1019 680 1047 652 1033 b 512 961 420 830 341 698 b 325 671 310 645 295 618 b 276 661 257 704 240 748 b 204 835 175 925 139 1011 b 113 1073 -22 1040 -7 972 z"},"*":{"x_min":0,"x_max":342,"ha":342,"o":"m 309 541 b 280 542 251 543 222 543 b 240 574 258 604 276 635 b 282 646 270 654 261 655 b 248 657 235 651 228 640 b 214 619 200 597 186 575 b 167 603 147 629 127 655 b 113 672 66 654 81 634 b 104 604 126 573 147 542 b 109 540 72 536 35 529 b 25 527 11 517 14 505 b 18 493 34 494 44 496 b 76 502 109 505 142 507 b 119 470 96 434 72 397 b 64 386 78 376 88 375 b 103 373 117 380 125 391 b 145 422 165 453 184 483 b 205 450 225 416 244 381 b 255 360 306 380 293 404 b 274 439 254 473 232 507 b 252 506 271 506 291 505 b 303 504 319 508 324 520 b 329 531 320 541 309 541 z"},"Y":{"x_min":0,"x_max":733,"ha":733,"o":"m 271 430 b 356 442 410 362 410 285 b 410 255 468 264 469 290 b 469 364 432 440 358 465 b 275 493 187 455 126 398 b 3 283 -36 94 56 -51 b 98 -118 166 -167 242 -186 b 283 -196 322 -204 364 -198 b 415 -191 463 -173 507 -145 b 674 -39 713 182 719 365 b 722 477 712 591 698 702 b 692 757 683 811 672 865 b 667 893 660 922 654 950 b 647 979 636 1005 625 1033 b 621 1045 610 1051 599 1053 b 591 1054 583 1054 575 1053 b 568 1052 558 1048 549 1043 b 540 1038 532 1030 530 1022 b 528 1020 527 1018 527 1015 b 503 924 476 833 439 747 b 422 708 403 669 377 636 b 366 621 352 605 335 596 b 322 589 308 585 292 589 b 261 596 241 627 230 655 b 215 693 207 734 199 774 b 183 858 187 944 185 1030 b 184 1067 148 1082 115 1079 b 85 1075 31 1056 30 1017 b 27 936 30 852 45 771 b 60 696 91 613 150 561 b 212 507 301 516 365 563 b 428 608 465 674 494 745 b 511 785 526 826 539 868 b 542 831 546 793 549 756 b 555 673 562 591 563 507 b 565 423 562 337 551 253 b 541 176 525 98 492 28 b 476 -6 463 -28 439 -56 b 420 -78 399 -96 376 -107 b 363 -114 359 -115 341 -119 b 327 -122 312 -127 298 -127 b 264 -128 229 -116 200 -100 b 71 -28 38 141 96 269 b 127 339 190 419 271 430 z"},"c":{"x_min":0,"x_max":414,"ha":414,"o":"m 361 187 b 351 144 341 101 321 61 b 310 37 280 -20 247 -13 b 178 -1 165 97 163 152 b 160 228 171 308 206 374 b 211 383 218 392 226 398 b 228 400 231 402 233 403 b 240 406 248 406 257 402 b 295 385 301 334 301 298 b 302 268 359 277 359 302 b 361 344 356 385 331 420 b 317 439 296 452 273 459 b 261 464 248 466 236 467 b 132 477 50 386 24 294 b 11 249 8 204 11 157 b 13 111 19 67 39 25 b 77 -54 190 -104 270 -58 b 273 -57 275 -55 278 -53 b 363 4 391 96 412 192 b 417 216 366 209 361 187 z"},"!":{"x_min":0,"x_max":184,"ha":184,"o":"m 153 602 b 151 641 148 680 144 719 b 141 752 139 789 127 821 b 127 822 127 822 127 822 b 126 824 126 825 125 827 b 125 828 124 828 124 829 b 123 831 122 833 121 836 b 109 860 62 856 53 830 b 49 820 46 809 44 799 b 38 770 37 739 36 710 b 33 670 32 631 31 592 b 28 512 26 432 26 352 b 26 321 58 309 86 311 b 111 313 156 331 157 363 b 160 443 158 522 153 602 z m 115 232 b 100 254 54 242 44 220 b 29 185 35 136 32 98 b 30 73 58 64 79 66 b 97 67 135 82 135 106 b 134 144 138 201 115 232 z"},"/":{"x_min":0,"x_max":546,"ha":546,"o":"m 450 823 b 415 827 374 811 357 780 b 281 642 224 492 169 344 b 142 269 117 194 95 118 b 83 81 74 44 64 7 b 60 -12 56 -30 53 -49 b 51 -64 47 -87 54 -101 b 69 -136 143 -124 146 -85 b 147 -78 155 -69 158 -63 b 163 -54 167 -43 172 -33 b 179 -16 186 1 192 18 b 206 53 219 89 233 125 b 259 197 287 269 315 341 b 371 483 437 622 492 765 b 505 797 481 819 450 823 z"},"[":{"x_min":0,"x_max":389,"ha":389,"o":"m 338 -104 b 336 -85 318 -74 300 -73 b 275 -71 261 -68 242 -45 b 220 -20 206 11 197 43 b 176 115 171 193 170 268 b 168 353 170 438 171 523 b 172 604 174 687 184 768 b 189 807 196 847 212 884 b 218 897 224 912 234 923 b 234 923 234 924 234 924 b 236 925 237 927 239 928 b 243 932 248 933 253 936 b 255 937 261 938 264 939 b 268 937 275 934 275 934 b 292 927 334 952 310 966 b 282 983 253 986 226 981 b 226 981 226 981 226 981 b 225 981 224 980 224 980 b 192 973 163 954 140 928 b 126 912 114 894 106 875 b 64 785 49 685 40 587 b 31 485 27 382 25 280 b 24 185 24 84 54 -7 b 69 -55 95 -98 135 -129 b 181 -164 254 -178 305 -148 b 321 -138 340 -125 338 -104 z"},"6":{"x_min":0,"x_max":550,"ha":550,"o":"m 186 -62 b 269 -87 355 -58 420 -3 b 470 39 513 109 484 176 b 451 249 365 273 292 262 b 247 255 205 240 166 218 b 163 249 164 280 166 309 b 174 424 203 538 251 643 b 273 692 297 740 335 778 b 339 781 343 785 347 789 b 358 799 371 808 384 812 b 384 812 384 812 384 813 b 385 813 386 813 386 813 b 394 815 403 815 412 813 b 439 805 456 777 447 750 b 441 729 490 731 496 749 b 517 816 450 857 391 851 b 386 851 382 850 377 849 b 375 849 373 849 371 848 b 368 848 366 847 364 847 b 363 847 363 847 362 847 b 300 833 245 796 202 750 b 151 695 115 628 87 559 b 56 483 34 403 23 322 b 6 181 25 -14 186 -62 z m 412 175 b 439 136 428 91 400 57 b 364 15 301 -7 255 27 b 209 62 184 117 172 175 b 246 225 357 254 412 175 z"},"r":{"x_min":0,"x_max":380,"ha":380,"o":"m 358 384 b 348 402 329 426 310 436 b 259 461 212 418 188 377 b 179 364 172 349 166 334 b 167 367 168 400 168 434 b 168 508 32 484 24 422 b 14 350 16 275 21 202 b 23 164 26 126 32 89 b 37 54 41 15 55 -18 b 74 -63 165 -46 171 2 b 174 32 171 64 169 95 b 173 165 185 234 206 300 b 213 321 222 342 232 361 b 239 373 252 401 267 403 b 291 407 290 364 291 350 b 294 327 293 304 298 281 b 306 245 375 266 380 296 b 385 325 373 358 358 384 z"},"2":{"x_min":0,"x_max":502,"ha":502,"o":"m 106 717 b 109 738 133 753 149 764 b 169 777 191 787 214 793 b 249 803 295 806 324 780 b 358 750 334 691 324 655 b 311 612 293 571 275 530 b 240 448 195 371 155 291 b 134 251 115 210 98 168 b 82 127 64 81 71 36 b 79 -20 137 -43 187 -48 b 249 -55 314 -49 376 -39 b 406 -34 448 -20 452 16 b 456 50 415 61 389 60 b 337 57 285 48 233 54 b 219 55 216 53 212 67 b 206 84 213 105 218 121 b 245 210 289 293 327 377 b 366 462 403 550 414 644 b 419 688 421 736 398 776 b 376 812 344 832 303 839 b 255 846 204 834 160 815 b 119 797 55 762 50 712 b 47 684 104 692 106 717 z"},"{":{"x_min":0,"x_max":561,"ha":561,"o":"m 505 -103 b 491 -90 469 -94 454 -100 b 451 -101 449 -102 446 -102 b 427 -104 408 -86 397 -72 b 377 -48 364 -19 355 11 b 335 76 332 144 329 212 b 326 275 331 365 277 410 b 268 418 258 424 248 428 b 280 479 301 541 316 590 b 332 644 342 698 356 752 b 358 758 359 763 361 769 b 366 790 372 811 378 831 b 382 843 392 894 411 867 b 424 849 470 866 457 889 b 447 908 424 915 403 914 b 376 912 356 898 338 880 b 320 862 305 841 292 819 b 272 785 258 748 245 712 b 225 655 208 596 183 541 b 172 515 159 490 143 467 b 136 456 127 446 118 436 b 117 434 115 433 114 431 b 87 424 63 410 53 384 b 39 346 76 327 110 330 b 128 332 145 337 161 344 b 168 342 174 337 178 328 b 190 304 190 271 193 245 b 199 179 201 111 215 46 b 229 -17 257 -83 308 -125 b 339 -152 379 -166 419 -165 b 447 -164 474 -156 497 -140 b 510 -131 517 -115 505 -103 z m 102 419 b 99 416 96 415 95 416 b 94 417 96 419 104 421 b 103 420 103 420 102 419 z"},"9":{"x_min":0,"x_max":643,"ha":643,"o":"m 44 626 b 29 590 18 551 16 512 b 15 479 17 430 47 410 b 77 389 119 402 147 420 b 179 439 204 469 227 498 b 278 562 318 633 369 697 b 381 712 394 729 410 741 b 425 753 430 750 441 731 b 444 725 447 718 450 711 b 462 682 468 650 474 619 b 488 533 487 443 483 356 b 479 272 471 181 438 103 b 431 86 421 68 412 57 b 407 50 401 44 395 38 b 395 38 390 34 389 34 b 387 32 385 31 385 30 b 385 30 385 30 385 30 b 384 29 382 29 381 28 b 382 29 381 28 379 28 b 385 31 375 26 372 25 b 371 24 371 24 371 24 b 367 24 363 24 359 23 b 358 23 358 24 357 24 b 352 24 347 25 343 25 b 342 25 341 26 341 26 b 340 26 340 26 339 26 b 334 28 328 29 322 32 b 295 42 268 66 249 96 b 226 129 216 167 207 207 b 200 239 155 242 130 238 b 105 234 57 213 58 181 b 62 98 96 21 161 -32 b 228 -87 328 -103 410 -76 b 497 -46 560 21 588 108 b 616 194 621 290 618 380 b 615 468 603 559 577 643 b 570 666 560 693 546 718 b 530 745 509 770 483 783 b 465 792 445 795 421 790 b 383 782 355 755 331 726 b 305 694 282 660 259 626 b 235 590 211 555 185 521 b 166 495 136 450 102 442 b 59 431 77 551 82 572 b 93 616 112 659 138 695 b 190 769 277 834 370 801 b 391 794 428 822 399 834 b 246 895 98 759 44 626 z"}," ":{"x_min":0,"x_max":277,"ha":277,"o":""},"I":{"x_min":0,"x_max":328,"ha":328,"o":"m 333 1003 b 334 1017 318 1023 306 1021 b 279 1019 252 1016 225 1013 b 221 1020 212 1025 203 1029 b 201 1030 199 1030 198 1031 b 183 1036 167 1036 151 1033 b 130 1029 94 1015 83 991 b 58 987 33 982 8 976 b -19 970 -22 933 10 939 b 33 942 56 946 79 950 b 80 765 94 580 107 396 b 114 302 121 208 131 114 b 136 67 140 20 147 -26 b 153 -62 157 -100 170 -135 b 159 -138 149 -139 140 -137 b 126 -133 109 -136 100 -148 b 92 -157 94 -171 107 -174 b 134 -181 160 -177 187 -171 b 188 -173 189 -174 191 -175 b 191 -176 192 -176 192 -176 b 192 -176 192 -176 192 -176 b 215 -193 266 -178 274 -154 b 274 -152 275 -151 275 -149 b 300 -143 325 -137 350 -130 b 361 -127 377 -117 373 -103 b 370 -90 351 -89 340 -92 b 321 -97 302 -102 284 -106 b 287 -72 285 -37 284 -2 b 283 45 279 92 276 139 b 271 233 263 327 258 422 b 247 605 242 789 231 972 b 254 975 277 978 301 980 b 313 981 332 989 333 1003 z"},"H":{"x_min":0,"x_max":795,"ha":795,"o":"m 41 322 b 54 361 82 386 117 401 b 121 304 127 207 135 109 b 144 14 153 -84 178 -177 b 190 -220 281 -200 283 -159 b 287 -62 278 37 273 133 b 268 229 264 324 261 420 b 261 422 261 424 261 426 b 299 427 338 427 375 428 b 444 428 512 424 581 419 b 583 418 586 418 588 418 b 589 406 589 394 590 382 b 596 286 604 191 614 96 b 619 50 625 3 632 -43 b 639 -90 647 -141 673 -181 b 682 -196 708 -195 722 -191 b 741 -187 755 -175 760 -157 b 774 -113 768 -62 766 -15 b 763 33 759 81 755 129 b 748 220 743 312 738 403 b 737 409 737 415 737 421 b 748 423 759 426 770 430 b 781 434 797 443 793 457 b 790 469 771 472 760 468 b 752 465 743 463 735 461 b 728 628 728 795 722 963 b 721 997 688 1011 657 1008 b 629 1005 581 987 579 952 b 570 788 576 623 586 460 b 572 461 559 462 546 463 b 471 468 396 469 320 468 b 301 467 281 467 260 466 b 257 643 265 821 263 998 b 261 1069 131 1047 124 987 b 105 808 109 624 115 443 b 57 424 8 389 -12 323 b -20 299 35 303 41 322 z"},"4":{"x_min":0,"x_max":580,"ha":580,"o":"m 155 154 b 186 180 203 218 216 255 b 274 274 336 282 396 286 b 399 251 402 216 406 181 b 410 147 414 114 421 81 b 427 46 435 6 460 -21 b 479 -42 533 -36 542 -7 b 554 27 552 63 552 99 b 551 133 550 167 549 201 b 547 272 545 342 543 413 b 541 482 540 551 539 620 b 538 694 541 768 535 841 b 532 874 479 877 457 873 b 428 868 389 849 384 815 b 376 745 379 673 381 603 b 382 532 385 462 389 391 b 390 369 392 348 393 326 b 338 322 284 314 231 300 b 253 375 267 454 278 532 b 286 584 291 637 291 690 b 292 715 291 741 289 767 b 287 787 287 811 272 827 b 256 842 209 822 226 805 b 241 790 239 759 240 740 b 241 716 241 692 240 667 b 238 622 233 577 227 532 b 214 448 199 362 172 281 b 172 281 171 281 171 281 b 137 268 104 251 78 224 b 60 204 37 166 59 141 b 84 113 133 134 155 154 z m 151 227 b 147 219 143 211 138 204 b 134 196 128 189 123 183 b 119 179 115 175 110 172 b 110 172 109 171 108 171 b 108 195 129 214 151 227 z"},"D":{"x_min":0,"x_max":842,"ha":842,"o":"m 241 728 b 215 634 196 539 183 444 b 180 536 179 629 179 721 b 178 818 181 915 178 1012 b 175 1087 34 1065 29 1000 b 27 971 26 941 25 911 b 19 785 23 659 27 533 b 29 492 30 450 32 409 b 36 310 42 212 50 114 b 54 64 59 15 65 -34 b 69 -58 72 -82 79 -106 b 85 -130 96 -151 107 -173 b 120 -198 171 -189 191 -167 b 197 -162 201 -156 200 -148 b 201 -124 202 -100 202 -75 b 201 -50 200 -26 199 -1 b 199 2 199 5 199 8 b 215 190 227 373 260 553 b 280 663 308 772 350 876 b 377 945 438 1115 540 1048 b 581 1020 604 973 623 929 b 643 881 658 830 669 779 b 691 673 699 563 699 455 b 698 342 685 229 657 120 b 635 30 604 -74 534 -138 b 534 -137 522 -148 523 -147 b 518 -151 512 -154 507 -158 b 510 -155 486 -167 492 -165 b 491 -165 491 -165 491 -165 b 472 -172 461 -176 440 -172 b 414 -166 393 -148 378 -126 b 364 -107 355 -84 349 -63 b 316 47 364 163 423 255 b 434 271 416 287 401 290 b 383 294 356 288 344 272 b 278 179 233 66 247 -50 b 253 -105 274 -162 314 -201 b 356 -240 408 -258 465 -258 b 595 -257 693 -161 743 -49 b 793 65 819 191 828 314 b 837 441 829 569 803 693 b 780 808 732 926 656 1017 b 623 1056 582 1096 530 1106 b 477 1115 425 1092 388 1055 b 345 1013 321 953 299 898 b 276 843 257 786 241 728 z"},"^":{"x_min":0,"x_max":340,"ha":340,"o":"m 320 593 b 305 646 291 701 275 754 b 269 775 259 796 241 811 b 216 831 179 832 150 818 b 103 796 80 733 61 688 b 44 648 25 603 18 559 b 18 558 18 558 18 557 b 18 555 18 554 17 552 b 17 550 17 549 17 547 b 17 544 16 541 16 538 b 15 521 32 514 46 514 b 65 513 81 521 91 537 b 104 556 114 576 124 597 b 133 617 142 637 151 657 b 157 672 165 687 172 702 b 175 691 176 681 177 677 b 187 638 196 600 206 562 b 219 510 335 541 320 593 z"},"0":{"x_min":0,"x_max":573,"ha":573,"o":"m 144 -41 b 217 -106 331 -105 406 -43 b 473 13 513 94 534 177 b 556 265 553 356 544 445 b 534 531 513 616 469 691 b 447 729 416 765 378 789 b 349 807 316 818 280 818 b 197 818 129 759 92 688 b 64 634 49 570 58 509 b 42 499 30 485 29 468 b 19 377 19 285 36 195 b 51 111 79 17 144 -41 z m 155 670 b 180 718 224 774 285 762 b 300 759 313 753 325 745 b 364 719 388 670 402 627 b 424 562 430 494 431 426 b 432 353 429 279 414 208 b 402 148 378 88 338 41 b 330 30 321 21 313 15 b 311 13 310 11 309 11 b 309 11 308 10 308 10 b 308 10 308 11 307 11 b 309 11 305 11 303 10 b 300 10 297 10 295 10 b 293 11 280 16 281 15 b 272 20 263 27 256 35 b 206 85 189 170 179 238 b 172 278 169 319 169 359 b 205 345 246 343 283 360 b 314 375 286 399 261 389 b 229 374 196 390 171 414 b 172 436 173 458 176 480 b 179 512 151 526 119 526 b 117 576 133 627 155 670 z"},"F":{"x_min":0,"x_max":543,"ha":543,"o":"m 282 1036 b 229 1012 187 972 151 928 b 77 837 41 725 22 610 b 3 489 4 366 24 245 b 42 135 74 10 156 -71 b 228 -142 346 -178 438 -125 b 444 -121 450 -117 455 -113 b 542 -47 567 71 500 161 b 450 227 373 250 295 249 b 376 293 453 346 524 404 b 551 426 510 441 490 426 b 395 356 296 296 191 242 b 245 305 295 371 340 441 b 402 537 459 639 490 749 b 515 836 542 984 447 1040 b 444 1042 441 1044 437 1046 b 428 1050 418 1053 408 1055 b 408 1055 408 1055 407 1055 b 406 1056 405 1056 404 1056 b 369 1062 331 1055 298 1042 b 292 1040 287 1038 282 1036 z m 446 143 b 494 84 507 -30 430 -73 b 356 -114 280 -46 247 16 b 217 69 200 132 189 195 b 276 221 384 220 446 143 z m 436 745 b 406 639 350 539 290 446 b 255 391 216 338 174 287 b 148 475 168 673 247 845 b 265 884 284 920 310 954 b 324 971 341 991 361 1000 b 373 1005 387 1006 401 999 b 486 956 456 816 436 745 z"},"`":{"x_min":0,"x_max":192,"ha":192,"o":"m 174 600 b 165 638 154 677 141 714 b 129 750 117 792 92 822 b 76 842 16 833 17 802 b 19 763 35 725 45 688 b 55 650 65 612 73 573 b 82 527 185 553 174 600 z"},"k":{"x_min":0,"x_max":482,"ha":482,"o":"m 459 66 b 416 81 378 96 340 121 b 320 133 301 147 282 160 b 273 166 265 172 257 179 b 250 184 243 189 236 194 b 265 213 293 233 319 255 b 368 297 427 346 447 409 b 455 436 453 466 428 482 b 403 498 368 495 341 486 b 274 465 228 410 196 350 b 188 336 181 321 174 306 b 173 350 171 393 171 436 b 168 587 175 738 182 889 b 185 967 36 943 28 877 b 12 722 11 565 15 410 b 17 331 20 252 28 174 b 35 98 46 22 82 -47 b 95 -70 139 -66 158 -58 b 184 -49 203 -31 201 -3 b 199 36 193 75 189 114 b 192 111 195 108 197 105 b 215 85 236 67 257 50 b 299 18 351 -8 403 -17 b 429 -21 464 -8 478 14 b 491 35 483 58 459 66 z m 198 218 b 208 256 222 294 241 329 b 256 359 273 389 297 413 b 314 430 359 467 385 451 b 415 433 379 380 366 363 b 345 336 320 313 295 291 b 264 264 232 240 198 218 z"},"u":{"x_min":0,"x_max":505,"ha":505,"o":"m 478 209 b 478 279 483 349 487 419 b 491 489 357 467 349 408 b 349 408 349 407 349 407 b 328 341 313 274 296 207 b 287 169 276 131 262 94 b 255 76 236 17 212 20 b 208 20 205 23 201 27 b 194 34 188 46 185 52 b 178 64 174 79 170 93 b 161 127 157 163 154 199 b 148 273 165 347 166 421 b 166 495 38 467 25 410 b 15 363 12 314 12 267 b 12 223 16 176 29 134 b 42 94 62 54 91 23 b 104 9 118 -2 133 -9 b 153 -18 174 -23 199 -23 b 286 -22 312 76 332 143 b 337 163 342 182 347 201 b 347 196 348 191 348 187 b 351 150 356 115 363 79 b 370 47 378 11 401 -15 b 421 -37 469 -24 475 5 b 482 37 480 71 479 104 b 478 139 477 174 478 209 z"},"]":{"x_min":0,"x_max":378,"ha":378,"o":"m 332 606 b 318 705 297 809 247 897 b 229 929 193 968 156 979 b 117 990 75 977 53 943 b 38 921 88 917 99 933 b 116 957 149 937 158 915 b 163 903 164 888 167 874 b 170 855 174 835 177 815 b 189 738 197 659 205 581 b 220 427 224 268 209 113 b 205 70 198 28 188 -14 b 185 -29 182 -43 176 -56 b 157 -54 138 -59 121 -69 b 104 -80 76 -109 98 -130 b 142 -173 213 -166 260 -130 b 302 -100 316 -51 327 -3 b 350 94 353 196 354 296 b 354 400 346 503 332 606 z"},"U":{"x_min":0,"x_max":939,"ha":939,"o":"m 513 72 b 493 32 456 -40 403 -38 b 401 -38 399 -38 398 -38 b 397 -37 396 -37 395 -37 b 394 -37 394 -37 393 -37 b 392 -37 392 -37 391 -37 b 343 -28 306 21 285 61 b 256 116 239 181 225 242 b 210 307 199 372 191 439 b 174 596 176 755 158 912 b 154 944 102 948 80 944 b 55 939 5 918 7 886 b 16 731 19 575 39 421 b 57 279 89 126 174 8 b 215 -48 277 -90 348 -93 b 413 -96 474 -66 515 -16 b 603 88 630 240 658 370 b 670 427 681 484 691 542 b 695 482 700 423 706 363 b 716 280 730 197 749 115 b 759 74 771 33 788 -6 b 804 -44 822 -94 858 -117 b 875 -129 915 -123 922 -100 b 935 -61 921 -12 914 28 b 907 68 899 108 891 148 b 875 230 865 312 857 395 b 841 561 843 728 836 894 b 834 930 800 946 767 942 b 738 939 684 919 683 882 b 683 872 683 861 683 851 b 669 720 649 590 623 461 b 597 331 573 192 513 72 z"},"o":{"x_min":0,"x_max":388,"ha":388,"o":"m 379 258 b 376 342 333 427 249 454 b 164 481 49 441 14 356 b 10 347 13 341 19 338 b 9 250 8 151 46 71 b 65 31 94 -2 139 -13 b 191 -26 247 -11 288 22 b 339 63 366 124 375 188 b 376 191 376 194 377 197 b 378 206 378 214 379 223 b 379 229 380 236 380 242 b 380 247 379 253 379 258 z m 300 144 b 299 142 298 140 297 138 b 297 138 297 138 297 138 b 281 108 255 70 222 59 b 222 59 221 59 221 59 b 194 52 175 82 167 104 b 133 188 141 281 150 370 b 152 392 138 404 118 408 b 166 432 229 425 269 386 b 332 325 337 220 300 144 z"},"N":{"x_min":0,"x_max":856,"ha":856,"o":"m 39 968 b 19 787 20 601 26 419 b 28 327 32 235 40 144 b 44 99 47 54 54 9 b 60 -35 63 -87 90 -124 b 108 -152 171 -137 181 -108 b 187 -93 190 -78 192 -62 b 231 75 258 216 291 354 b 326 498 364 642 414 781 b 439 848 464 917 506 976 b 514 987 525 1006 538 1011 b 551 1017 563 1005 571 994 b 591 968 598 929 604 898 b 632 751 641 602 651 454 b 663 280 663 104 676 -70 b 677 -85 698 -97 709 -101 b 725 -107 743 -106 759 -103 b 786 -99 837 -77 836 -42 b 831 126 812 296 793 463 b 775 621 756 792 683 935 b 657 987 609 1065 541 1053 b 472 1041 432 956 406 899 b 340 755 298 599 259 446 b 235 351 212 255 189 160 b 189 161 189 163 189 165 b 187 255 183 346 182 436 b 181 618 189 798 190 980 b 190 1057 46 1033 39 968 z"},"+":{"x_min":0,"x_max":393,"ha":393,"o":"m 319 340 b 298 337 276 335 255 332 b 254 399 256 467 250 533 b 248 558 208 560 192 557 b 170 553 140 539 138 514 b 131 450 134 385 138 320 b 118 318 98 317 77 315 b 48 313 36 274 72 277 b 95 279 118 281 141 283 b 143 247 147 211 150 175 b 154 139 155 94 176 65 b 195 39 242 56 255 79 b 255 79 255 79 255 79 b 269 113 263 153 261 189 b 259 224 258 259 257 295 b 276 297 295 299 314 301 b 325 303 342 309 343 323 b 344 336 329 341 319 340 z"},"G":{"x_min":0,"x_max":682,"ha":682,"o":"m 338 685 b 328 658 378 659 387 679 b 413 745 435 814 442 885 b 447 943 447 1014 405 1059 b 393 1073 377 1083 361 1089 b 319 1104 267 1096 227 1074 b 165 1039 117 984 85 920 b 54 857 37 784 34 714 b 31 646 37 573 65 511 b 94 448 148 403 219 401 b 278 399 329 425 371 462 b 377 468 383 473 388 479 b 437 529 473 595 502 658 b 511 678 520 699 528 721 b 529 717 529 713 529 710 b 531 692 532 675 533 658 b 536 591 535 525 531 458 b 527 391 519 325 506 259 b 494 197 480 134 452 76 b 407 -18 324 -100 210 -77 b 161 -67 114 -38 87 5 b 61 49 57 109 69 158 b 80 205 110 249 154 271 b 200 295 262 292 290 243 b 302 221 355 241 342 267 b 314 320 247 333 193 325 b 138 316 87 287 53 243 b -21 150 -15 7 75 -72 b 117 -108 168 -129 221 -136 b 308 -147 402 -122 471 -73 b 601 20 639 188 659 338 b 670 428 673 519 668 610 b 665 656 661 702 655 748 b 648 796 637 839 619 884 b 614 896 604 903 591 905 b 583 907 575 906 567 905 b 559 904 548 900 539 894 b 527 888 518 878 519 866 b 519 865 519 864 519 863 b 498 759 458 658 399 570 b 373 531 342 484 295 468 b 254 453 219 486 203 522 b 183 569 177 624 176 675 b 175 730 183 785 198 838 b 211 885 232 932 258 973 b 273 996 309 1049 339 1034 b 394 1008 391 922 386 872 b 380 808 361 745 338 685 z"},"q":{"x_min":0,"x_max":473,"ha":473,"o":"m 493 -46 b 480 -48 467 -49 454 -50 b 453 -23 452 4 451 31 b 450 97 450 163 450 229 b 451 297 454 367 445 434 b 441 463 397 466 377 462 b 353 458 326 445 316 421 b 286 437 254 447 219 447 b 183 447 151 435 123 417 b 111 409 99 399 87 388 b 23 324 3 218 10 130 b 18 44 60 -49 161 -47 b 199 -46 237 -32 261 -2 b 281 24 293 55 302 86 b 303 59 303 33 304 6 b 305 -18 307 -42 308 -66 b 300 -67 291 -68 283 -69 b 272 -70 257 -76 256 -88 b 255 -101 268 -105 278 -104 b 289 -103 300 -102 311 -101 b 314 -134 318 -166 323 -199 b 329 -230 335 -262 343 -292 b 351 -323 362 -365 390 -383 b 410 -397 440 -386 452 -366 b 470 -339 465 -298 464 -267 b 463 -233 460 -200 459 -166 b 458 -140 457 -113 456 -87 b 467 -86 478 -85 488 -84 b 500 -83 517 -76 518 -63 b 519 -50 504 -45 493 -46 z m 298 376 b 281 296 277 214 260 134 b 253 98 243 59 223 27 b 218 19 212 10 204 5 b 202 3 192 -1 195 -2 b 193 -1 190 0 188 1 b 177 7 166 22 161 30 b 142 61 137 104 136 139 b 135 182 139 227 151 269 b 161 302 175 339 197 365 b 205 375 217 389 229 393 b 250 399 277 386 295 377 b 296 377 297 377 298 376 b 298 376 298 376 298 376 z"},"d":{"x_min":0,"x_max":462,"ha":462,"o":"m 457 -35 b 456 -32 455 -30 454 -28 b 451 -21 449 -14 448 -7 b 447 2 446 10 445 19 b 445 21 445 24 444 27 b 444 27 444 27 444 27 b 444 27 444 28 444 29 b 444 36 444 44 443 52 b 441 96 438 132 436 181 b 429 317 432 453 436 588 b 439 688 447 787 453 887 b 458 958 318 937 311 875 b 294 728 290 579 294 431 b 271 441 245 447 219 447 b 183 447 151 435 123 417 b 111 409 99 399 87 388 b 23 324 3 218 10 130 b 18 44 60 -49 161 -47 b 199 -46 237 -32 261 -2 b 285 28 297 65 306 101 b 309 110 311 118 312 127 b 315 108 318 89 321 70 b 324 52 328 35 332 18 b 336 3 341 -12 347 -27 b 356 -47 367 -66 388 -74 b 396 -77 404 -79 411 -79 b 425 -79 438 -76 452 -71 b 454 -70 457 -69 459 -69 b 482 -59 475 -39 457 -35 z m 260 134 b 253 98 243 59 223 27 b 218 19 212 10 204 5 b 202 3 192 -1 195 -2 b 193 -1 190 0 188 1 b 177 7 166 22 161 30 b 142 61 137 104 136 139 b 135 182 139 227 151 269 b 161 302 175 339 197 365 b 205 375 217 389 229 393 b 250 399 277 386 295 377 b 295 377 296 377 296 377 b 296 374 296 371 297 369 b 280 291 277 212 260 134 z m 459 -40 b 459 -40 458 -39 458 -38 b 458 -38 459 -39 459 -39 b 459 -39 459 -40 459 -40 z"},"1":{"x_min":0,"x_max":426,"ha":426,"o":"m 101 723 b 138 769 249 851 279 755 b 291 717 291 674 291 635 b 290 591 287 547 284 503 b 276 412 264 320 255 229 b 246 135 238 40 246 -54 b 249 -85 299 -88 320 -84 b 345 -80 388 -61 388 -29 b 390 54 389 137 393 221 b 397 304 401 388 399 471 b 397 549 396 631 371 706 b 360 740 343 780 317 807 b 303 822 286 833 265 838 b 262 839 259 840 255 840 b 180 851 100 795 55 739 b 34 712 86 704 101 723 z"},"5":{"x_min":0,"x_max":680,"ha":680,"o":"m 140 776 b 145 776 150 777 155 778 b 120 718 104 646 83 581 b 75 559 84 541 107 532 b 135 522 165 523 194 529 b 217 534 224 536 246 538 b 277 539 319 530 352 515 b 421 483 470 417 489 344 b 509 271 498 186 450 127 b 427 98 404 83 374 68 b 369 65 345 58 337 57 b 320 54 304 54 287 59 b 188 87 220 218 237 289 b 243 314 209 326 191 326 b 168 326 131 315 122 290 b 102 233 85 177 95 116 b 102 70 127 26 166 0 b 261 -65 399 -31 488 28 b 574 86 630 184 630 288 b 631 391 586 487 507 554 b 461 592 402 616 343 626 b 313 632 281 633 250 631 b 240 630 230 629 219 627 b 224 650 229 674 234 697 b 241 731 248 766 250 800 b 285 810 320 820 356 822 b 382 823 455 817 438 773 b 428 745 479 746 488 767 b 521 852 393 863 341 857 b 302 852 265 842 228 831 b 214 833 198 828 188 821 b 179 819 171 817 162 815 b 147 812 113 803 101 815 b 85 832 36 811 54 793 b 76 769 110 772 140 776 z"}}}
